<?xml version="1.0" encoding="UTF-8" standalone="no"?>
<!DOCTYPE svg PUBLIC "-//W3C//DTD SVG 1.1//EN"
 "http://www.w3.org/Graphics/SVG/1.1/DTD/svg11.dtd">
<!-- Generated by graphviz version 16.1.0 (20260904.0139)
 -->
<!-- Title: HAL_UART_MspDeInit Pages: 1 -->
<svg width="438pt" height="102pt"
 viewBox="0.00 0.00 438.00 102.00" xmlns="http://www.w3.org/2000/svg" xmlns:xlink="http://www.w3.org/1999/xlink">
<g id="graph0" class="graph" transform="scale(1 1) rotate(0) translate(4 98)">
<title>HAL_UART_MspDeInit</title>
<!-- Node1 -->
<g id="Node000001" class="node">
<title>Node1</title>
<g id="a_Node000001"><a xlink:title="UART MSP DeInit.">
<polygon fill="#999999" stroke="#666666" points="118,-48 0,-48 0,-28 118,-28 118,-48"/>
<text xml:space="preserve" text-anchor="middle" x="59" y="-34.5" font-family="Helvetica,sans-Serif" font-size="10.00">HAL_UART_MspDeInit</text>
</a>
</g>
</g>
<!-- Node2 -->
<g id="Node000002" class="node">
<title>Node2</title>
<g id="a_Node000002"><a xlink:href="stm32f1xx__hal__msp_8c.html#ga718f39804e3b910d738a0e1e46151188" target="_top" xlink:title="UART MSP De&#45;Initialization This function freeze the hardware resources used in this example.">
<polygon fill="white" stroke="#666666" points="272,-48 154,-48 154,-28 272,-28 272,-48"/>
<text xml:space="preserve" text-anchor="middle" x="213" y="-34.5" font-family="Helvetica,sans-Serif" font-size="10.00">HAL_UART_MspDeInit</text>
</a>
</g>
</g>
<!-- Node1&#45;&gt;Node2 -->
<g id="edge1_Node000001_Node000002" class="edge">
<title>Node1&#45;&gt;Node2</title>
<g id="a_edge1_Node000001_Node000002"><a xlink:title=" ">
<path fill="none" stroke="#63b8ff" d="M118.33,-38C126.19,-38 134.3,-38 142.33,-38"/>
<polygon fill="#63b8ff" stroke="#63b8ff" points="142.06,-41.5 152.06,-38 142.06,-34.5 142.06,-41.5"/>
</a>
</g>
</g>
<!-- Node2&#45;&gt;Node2 -->
<g id="edge6_Node000002_Node000002" class="edge">
<title>Node2&#45;&gt;Node2</title>
<g id="a_edge6_Node000002_Node000002"><a xlink:title=" ">
<path fill="none" stroke="#63b8ff" d="M188.53,-48.34C178.07,-56.98 186.23,-66 213,-66 227.64,-66 236.71,-63.3 240.22,-59.44"/>
<polygon fill="#63b8ff" stroke="#63b8ff" points="243.63,-58.67 237.83,-49.81 236.84,-60.36 243.63,-58.67"/>
</a>
</g>
</g>
<!-- Node3 -->
<g id="Node000003" class="node">
<title>Node3</title>
<g id="a_Node000003"><a xlink:href="group___g_p_i_o___exported___functions___group1.html#gafe9c756b5aa18961032a3f8aa572959b" target="_top" xlink:title="De&#45;initializes the GPIOx peripheral registers to their default reset values.">
<polygon fill="white" stroke="#666666" points="417.38,-76 320.38,-76 320.38,-56 417.38,-56 417.38,-76"/>
<text xml:space="preserve" text-anchor="middle" x="368.88" y="-62.5" font-family="Helvetica,sans-Serif" font-size="10.00">HAL_GPIO_DeInit</text>
</a>
</g>
</g>
<!-- Node2&#45;&gt;Node3 -->
<g id="edge2_Node000002_Node000003" class="edge">
<title>Node2&#45;&gt;Node3</title>
<g id="a_edge2_Node000002_Node000003"><a xlink:title=" ">
<path fill="none" stroke="#63b8ff" d="M271.3,-48.43C283.6,-50.66 296.61,-53.03 308.97,-55.28"/>
<polygon fill="#63b8ff" stroke="#63b8ff" points="308.14,-58.69 318.61,-57.04 309.4,-51.8 308.14,-58.69"/>
</a>
</g>
</g>
<!-- Node4 -->
<g id="Node000004" class="node">
<title>Node4</title>
<g id="a_Node000004"><a xlink:href="group___c_o_r_t_e_x___exported___functions___group1.html#ga50ca6290e068821cb84aa168f3e13967" target="_top" xlink:title="Disables a device specific interrupt in the NVIC interrupt controller.">
<polygon fill="white" stroke="#666666" points="429.75,-20 308,-20 308,0 429.75,0 429.75,-20"/>
<text xml:space="preserve" text-anchor="middle" x="368.88" y="-6.5" font-family="Helvetica,sans-Serif" font-size="10.00">HAL_NVIC_DisableIRQ</text>
</a>
</g>
</g>
<!-- Node2&#45;&gt;Node4 -->
<g id="edge4_Node000002_Node000004" class="edge">
<title>Node2&#45;&gt;Node4</title>
<g id="a_edge4_Node000002_Node000004"><a xlink:title=" ">
<path fill="none" stroke="#63b8ff" d="M271.3,-27.57C280.35,-25.93 289.79,-24.21 299.07,-22.52"/>
<polygon fill="#63b8ff" stroke="#63b8ff" points="299.57,-25.99 308.78,-20.75 298.32,-19.1 299.57,-25.99"/>
</a>
</g>
</g>
<!-- Node3&#45;&gt;Node3 -->
<g id="edge3_Node000003_Node000003" class="edge">
<title>Node3&#45;&gt;Node3</title>
<g id="a_edge3_Node000003_Node000003"><a xlink:title=" ">
<path fill="none" stroke="#63b8ff" d="M344.11,-76.34C333.52,-84.98 341.78,-94 368.88,-94 383.69,-94 392.88,-91.3 396.43,-87.44"/>
<polygon fill="#63b8ff" stroke="#63b8ff" points="399.84,-86.66 394.01,-77.81 393.05,-88.36 399.84,-86.66"/>
</a>
</g>
</g>
<!-- Node4&#45;&gt;Node4 -->
<g id="edge5_Node000004_Node000004" class="edge">
<title>Node4&#45;&gt;Node4</title>
<g id="a_edge5_Node000004_Node000004"><a xlink:title=" ">
<path fill="none" stroke="#63b8ff" d="M344.11,-20.34C333.52,-28.98 341.78,-38 368.88,-38 383.69,-38 392.88,-35.3 396.43,-31.44"/>
<polygon fill="#63b8ff" stroke="#63b8ff" points="399.84,-30.66 394.01,-21.81 393.05,-32.36 399.84,-30.66"/>
</a>
</g>
</g>
</g>
</svg>
