<?xml version="1.0" encoding="UTF-8" standalone="no"?>
<!DOCTYPE svg PUBLIC "-//W3C//DTD SVG 1.1//EN"
 "http://www.w3.org/Graphics/SVG/1.1/DTD/svg11.dtd">
<!-- Generated by graphviz version 16.1.0 (20260904.0139)
 -->
<!-- Title: HAL_TIM_OC_Start_DMA Pages: 1 -->
<svg width="514pt" height="276pt"
 viewBox="0.00 0.00 514.00 276.00" xmlns="http://www.w3.org/2000/svg" xmlns:xlink="http://www.w3.org/1999/xlink">
<g id="graph0" class="graph" transform="scale(1 1) rotate(0) translate(4 272)">
<title>HAL_TIM_OC_Start_DMA</title>
<!-- Node1 -->
<g id="Node000001" class="node">
<title>Node1</title>
<g id="a_Node000001"><a xlink:title="Starts the TIM Output Compare signal generation in DMA mode.">
<polygon fill="#999999" stroke="#666666" points="132.25,-138 0,-138 0,-118 132.25,-118 132.25,-138"/>
<text xml:space="preserve" text-anchor="middle" x="66.12" y="-124.5" font-family="Helvetica,sans-Serif" font-size="10.00">HAL_TIM_OC_Start_DMA</text>
</a>
</g>
</g>
<!-- Node1&#45;&gt;Node1 -->
<g id="edge5_Node000001_Node000001" class="edge">
<title>Node1&#45;&gt;Node1</title>
<g id="a_edge5_Node000001_Node000001"><a xlink:title=" ">
<path fill="none" stroke="#63b8ff" d="M38.2,-138.34C26.27,-146.98 35.57,-156 66.12,-156 83.31,-156 93.77,-153.14 97.52,-149.11"/>
<polygon fill="#63b8ff" stroke="#63b8ff" points="100.91,-148.23 94.51,-139.78 94.24,-150.37 100.91,-148.23"/>
</a>
</g>
</g>
<!-- Node2 -->
<g id="Node000002" class="node">
<title>Node2</title>
<g id="a_Node000002"><a xlink:href="group___d_m_a___exported___functions___group2.html#ga7eddc0931ac8a3d77b23d6d5e68407c7" target="_top" xlink:title="Start the DMA Transfer with interrupt enabled.">
<polygon fill="white" stroke="#666666" points="293.75,-250 190,-250 190,-230 293.75,-230 293.75,-250"/>
<text xml:space="preserve" text-anchor="middle" x="241.88" y="-236.5" font-family="Helvetica,sans-Serif" font-size="10.00">HAL_DMA_Start_IT</text>
</a>
</g>
</g>
<!-- Node1&#45;&gt;Node2 -->
<g id="edge1_Node000001_Node000002" class="edge">
<title>Node1&#45;&gt;Node2</title>
<g id="a_edge1_Node000001_Node000002"><a xlink:title=" ">
<path fill="none" stroke="#63b8ff" d="M75.39,-138.42C91.27,-157.72 128.05,-199.06 168.25,-221 171.67,-222.87 175.28,-224.56 179,-226.09"/>
<polygon fill="#63b8ff" stroke="#63b8ff" points="177.64,-229.32 188.23,-229.46 180.04,-222.74 177.64,-229.32"/>
</a>
</g>
</g>
<!-- Node4 -->
<g id="Node000004" class="node">
<title>Node4</title>
<g id="a_Node000004"><a xlink:href="group___t_i_m___private___functions.html#ga7fcc6d5ca311c37f5d0250687c899924" target="_top" xlink:title="Enables or disables the TIM Capture Compare Channel x.">
<polygon fill="white" stroke="#666666" points="299.75,-194 184,-194 184,-174 299.75,-174 299.75,-194"/>
<text xml:space="preserve" text-anchor="middle" x="241.88" y="-180.5" font-family="Helvetica,sans-Serif" font-size="10.00">TIM_CCxChannelCmd</text>
</a>
</g>
</g>
<!-- Node1&#45;&gt;Node4 -->
<g id="edge6_Node000001_Node000004" class="edge">
<title>Node1&#45;&gt;Node4</title>
<g id="a_edge6_Node000001_Node000004"><a xlink:title=" ">
<path fill="none" stroke="#63b8ff" d="M93.5,-138.43C113.77,-146.26 142.56,-156.96 168.25,-165 174.39,-166.92 180.85,-168.81 187.3,-170.6"/>
<polygon fill="#63b8ff" stroke="#63b8ff" points="186.03,-173.88 196.59,-173.12 187.86,-167.13 186.03,-173.88"/>
</a>
</g>
</g>
<!-- Node5 -->
<g id="Node000005" class="node">
<title>Node5</title>
<g id="a_Node000005"><a xlink:href="group___t_i_m___private___functions.html#ga0b80d1e286521d39c4e58ffd16c60674" target="_top" xlink:title="TIM DMA Delay Pulse complete callback.">
<polygon fill="white" stroke="#666666" points="306.5,-138 177.25,-138 177.25,-118 306.5,-118 306.5,-138"/>
<text xml:space="preserve" text-anchor="middle" x="241.88" y="-124.5" font-family="Helvetica,sans-Serif" font-size="10.00">TIM_DMADelayPulseCplt</text>
</a>
</g>
</g>
<!-- Node1&#45;&gt;Node5 -->
<g id="edge8_Node000001_Node000005" class="edge">
<title>Node1&#45;&gt;Node5</title>
<g id="a_edge8_Node000001_Node000005"><a xlink:title=" ">
<path fill="none" stroke="#63b8ff" d="M132.32,-128C143.11,-128 154.38,-128 165.4,-128"/>
<polygon fill="#63b8ff" stroke="#63b8ff" points="165.25,-131.5 175.25,-128 165.25,-124.5 165.25,-131.5"/>
</a>
</g>
</g>
<!-- Node7 -->
<g id="Node000007" class="node">
<title>Node7</title>
<g id="a_Node000007"><a xlink:href="group___t_i_m___private___functions.html#ga8bfc333f26980f4e473a75cdb45de292" target="_top" xlink:title="TIM DMA Delay Pulse half complete callback.">
<polygon fill="white" stroke="#666666" points="315.5,-82 168.25,-82 168.25,-62 315.5,-62 315.5,-82"/>
<text xml:space="preserve" text-anchor="middle" x="241.88" y="-68.5" font-family="Helvetica,sans-Serif" font-size="10.00">TIM_DMADelayPulseHalfCplt</text>
</a>
</g>
</g>
<!-- Node1&#45;&gt;Node7 -->
<g id="edge12_Node000001_Node000007" class="edge">
<title>Node1&#45;&gt;Node7</title>
<g id="a_edge12_Node000001_Node000007"><a xlink:title=" ">
<path fill="none" stroke="#63b8ff" d="M99.4,-117.6C127.11,-108.67 167.27,-95.72 197.74,-85.9"/>
<polygon fill="#63b8ff" stroke="#63b8ff" points="198.59,-89.3 207.04,-82.91 196.45,-82.64 198.59,-89.3"/>
</a>
</g>
</g>
<!-- Node9 -->
<g id="Node000009" class="node">
<title>Node9</title>
<g id="a_Node000009"><a xlink:href="group___t_i_m___private___functions.html#gaa112bee5279feee040c1ea9e283f7378" target="_top" xlink:title="TIM DMA error callback.">
<polygon fill="white" stroke="#666666" points="282.88,-23 200.88,-23 200.88,-3 282.88,-3 282.88,-23"/>
<text xml:space="preserve" text-anchor="middle" x="241.88" y="-9.5" font-family="Helvetica,sans-Serif" font-size="10.00">TIM_DMAError</text>
</a>
</g>
</g>
<!-- Node1&#45;&gt;Node9 -->
<g id="edge16_Node000001_Node000009" class="edge">
<title>Node1&#45;&gt;Node9</title>
<g id="a_edge16_Node000001_Node000009"><a xlink:title=" ">
<path fill="none" stroke="#63b8ff" d="M79.82,-117.72C98.6,-102.7 135.14,-74.26 168.25,-53 181.63,-44.41 196.99,-35.78 210.12,-28.75"/>
<polygon fill="#63b8ff" stroke="#63b8ff" points="211.55,-31.96 218.76,-24.2 208.28,-25.77 211.55,-31.96"/>
</a>
</g>
</g>
<!-- Node2&#45;&gt;Node2 -->
<g id="edge4_Node000002_Node000002" class="edge">
<title>Node2&#45;&gt;Node2</title>
<g id="a_edge4_Node000002_Node000002"><a xlink:title=" ">
<path fill="none" stroke="#63b8ff" d="M213.95,-250.34C202.02,-258.98 211.32,-268 241.88,-268 259.06,-268 269.52,-265.14 273.27,-261.11"/>
<polygon fill="#63b8ff" stroke="#63b8ff" points="276.66,-260.23 270.26,-251.78 269.99,-262.37 276.66,-260.23"/>
</a>
</g>
</g>
<!-- Node3 -->
<g id="Node000003" class="node">
<title>Node3</title>
<g id="a_Node000003"><a xlink:href="group___d_m_a___private___functions.html#ga26dc2dbf05a5a572c7653bd8f91de459" target="_top" xlink:title="Sets the DMA Transfer parameter.">
<polygon fill="white" stroke="#666666" points="472.5,-250 385.25,-250 385.25,-230 472.5,-230 472.5,-250"/>
<text xml:space="preserve" text-anchor="middle" x="428.88" y="-236.5" font-family="Helvetica,sans-Serif" font-size="10.00">DMA_SetConfig</text>
</a>
</g>
</g>
<!-- Node2&#45;&gt;Node3 -->
<g id="edge2_Node000002_Node000003" class="edge">
<title>Node2&#45;&gt;Node3</title>
<g id="a_edge2_Node000002_Node000003"><a xlink:title=" ">
<path fill="none" stroke="#63b8ff" d="M293.92,-240C318.68,-240 348.44,-240 373.62,-240"/>
<polygon fill="#63b8ff" stroke="#63b8ff" points="373.31,-243.5 383.31,-240 373.31,-236.5 373.31,-243.5"/>
</a>
</g>
</g>
<!-- Node3&#45;&gt;Node3 -->
<g id="edge3_Node000003_Node000003" class="edge">
<title>Node3&#45;&gt;Node3</title>
<g id="a_edge3_Node000003_Node000003"><a xlink:title=" ">
<path fill="none" stroke="#63b8ff" d="M399.16,-250.34C386.47,-258.98 396.37,-268 428.88,-268 447.16,-268 458.29,-265.14 462.27,-261.11"/>
<polygon fill="#63b8ff" stroke="#63b8ff" points="465.63,-260.1 459.08,-251.77 459.01,-262.37 465.63,-260.1"/>
</a>
</g>
</g>
<!-- Node4&#45;&gt;Node4 -->
<g id="edge7_Node000004_Node000004" class="edge">
<title>Node4&#45;&gt;Node4</title>
<g id="a_edge7_Node000004_Node000004"><a xlink:title=" ">
<path fill="none" stroke="#63b8ff" d="M213.95,-194.34C202.02,-202.98 211.32,-212 241.88,-212 259.06,-212 269.52,-209.14 273.27,-205.11"/>
<polygon fill="#63b8ff" stroke="#63b8ff" points="276.66,-204.23 270.26,-195.78 269.99,-206.37 276.66,-204.23"/>
</a>
</g>
</g>
<!-- Node5&#45;&gt;Node5 -->
<g id="edge11_Node000005_Node000005" class="edge">
<title>Node5&#45;&gt;Node5</title>
<g id="a_edge11_Node000005_Node000005"><a xlink:title=" ">
<path fill="none" stroke="#63b8ff" d="M213.95,-138.34C202.02,-146.98 211.32,-156 241.88,-156 259.06,-156 269.52,-153.14 273.27,-149.11"/>
<polygon fill="#63b8ff" stroke="#63b8ff" points="276.66,-148.23 270.26,-139.78 269.99,-150.37 276.66,-148.23"/>
</a>
</g>
</g>
<!-- Node6 -->
<g id="Node000006" class="node">
<title>Node6</title>
<g id="a_Node000006"><a xlink:href="group___t_i_m___exported___functions___group9.html#ga9a92449e0bcf905d0b44eba7b6e1638c" target="_top" xlink:title="PWM Pulse finished callback in non&#45;blocking mode.">
<polygon fill="white" stroke="#666666" points="506.25,-156 351.5,-156 351.5,-124 506.25,-124 506.25,-156"/>
<text xml:space="preserve" text-anchor="start" x="359.5" y="-142.5" font-family="Helvetica,sans-Serif" font-size="10.00">HAL_TIM_PWM_PulseFinished</text>
<text xml:space="preserve" text-anchor="middle" x="428.88" y="-130.5" font-family="Helvetica,sans-Serif" font-size="10.00">Callback</text>
</a>
</g>
</g>
<!-- Node5&#45;&gt;Node6 -->
<g id="edge9_Node000005_Node000006" class="edge">
<title>Node5&#45;&gt;Node6</title>
<g id="a_edge9_Node000005_Node000006"><a xlink:title=" ">
<path fill="none" stroke="#63b8ff" d="M306.8,-132.15C317.53,-132.84 328.83,-133.58 340.04,-134.3"/>
<polygon fill="#63b8ff" stroke="#63b8ff" points="339.48,-137.77 349.68,-134.93 339.93,-130.79 339.48,-137.77"/>
</a>
</g>
</g>
<!-- Node6&#45;&gt;Node6 -->
<g id="edge10_Node000006_Node000006" class="edge">
<title>Node6&#45;&gt;Node6</title>
<g id="a_edge10_Node000006_Node000006"><a xlink:title=" ">
<path fill="none" stroke="#63b8ff" d="M395.49,-156.44C389.26,-165.58 400.39,-174 428.88,-174 444.45,-174 454.84,-171.48 460.04,-167.71"/>
<polygon fill="#63b8ff" stroke="#63b8ff" points="463.47,-168.42 461.97,-157.93 456.6,-167.06 463.47,-168.42"/>
</a>
</g>
</g>
<!-- Node7&#45;&gt;Node7 -->
<g id="edge15_Node000007_Node000007" class="edge">
<title>Node7&#45;&gt;Node7</title>
<g id="a_edge15_Node000007_Node000007"><a xlink:title=" ">
<path fill="none" stroke="#63b8ff" d="M213.95,-82.34C202.02,-90.98 211.32,-100 241.88,-100 259.06,-100 269.52,-97.14 273.27,-93.11"/>
<polygon fill="#63b8ff" stroke="#63b8ff" points="276.66,-92.23 270.26,-83.78 269.99,-94.37 276.66,-92.23"/>
</a>
</g>
</g>
<!-- Node8 -->
<g id="Node000008" class="node">
<title>Node8</title>
<g id="a_Node000008"><a xlink:href="group___t_i_m___exported___functions___group9.html#ga8175d5841c0cd41861e547cd071d1b81" target="_top" xlink:title="PWM Pulse finished half complete callback in non&#45;blocking mode.">
<polygon fill="white" stroke="#666666" points="506.25,-88 351.5,-88 351.5,-56 506.25,-56 506.25,-88"/>
<text xml:space="preserve" text-anchor="start" x="359.5" y="-74.5" font-family="Helvetica,sans-Serif" font-size="10.00">HAL_TIM_PWM_PulseFinished</text>
<text xml:space="preserve" text-anchor="middle" x="428.88" y="-62.5" font-family="Helvetica,sans-Serif" font-size="10.00">HalfCpltCallback</text>
</a>
</g>
</g>
<!-- Node7&#45;&gt;Node8 -->
<g id="edge13_Node000007_Node000008" class="edge">
<title>Node7&#45;&gt;Node8</title>
<g id="a_edge13_Node000007_Node000008"><a xlink:title=" ">
<path fill="none" stroke="#63b8ff" d="M315.99,-72C323.73,-72 331.65,-72 339.54,-72"/>
<polygon fill="#63b8ff" stroke="#63b8ff" points="339.52,-75.5 349.52,-72 339.52,-68.5 339.52,-75.5"/>
</a>
</g>
</g>
<!-- Node8&#45;&gt;Node8 -->
<g id="edge14_Node000008_Node000008" class="edge">
<title>Node8&#45;&gt;Node8</title>
<g id="a_edge14_Node000008_Node000008"><a xlink:title=" ">
<path fill="none" stroke="#63b8ff" d="M395.49,-88.44C389.26,-97.58 400.39,-106 428.88,-106 444.45,-106 454.84,-103.48 460.04,-99.71"/>
<polygon fill="#63b8ff" stroke="#63b8ff" points="463.47,-100.42 461.97,-89.93 456.6,-99.06 463.47,-100.42"/>
</a>
</g>
</g>
<!-- Node9&#45;&gt;Node9 -->
<g id="edge19_Node000009_Node000009" class="edge">
<title>Node9&#45;&gt;Node9</title>
<g id="a_edge19_Node000009_Node000009"><a xlink:title=" ">
<path fill="none" stroke="#63b8ff" d="M213.95,-23.34C202.02,-31.98 211.32,-41 241.88,-41 259.06,-41 269.52,-38.14 273.27,-34.11"/>
<polygon fill="#63b8ff" stroke="#63b8ff" points="276.66,-33.23 270.26,-24.78 269.99,-35.37 276.66,-33.23"/>
</a>
</g>
</g>
<!-- Node10 -->
<g id="Node000010" class="node">
<title>Node10</title>
<g id="a_Node000010"><a xlink:href="group___t_i_m___exported___functions___group9.html#ga87ccde88540408ad03343623d4a324ab" target="_top" xlink:title="Timer error callback in non&#45;blocking mode.">
<polygon fill="white" stroke="#666666" points="490.12,-20 367.62,-20 367.62,0 490.12,0 490.12,-20"/>
<text xml:space="preserve" text-anchor="middle" x="428.88" y="-6.5" font-family="Helvetica,sans-Serif" font-size="10.00">HAL_TIM_ErrorCallback</text>
</a>
</g>
</g>
<!-- Node9&#45;&gt;Node10 -->
<g id="edge17_Node000009_Node000010" class="edge">
<title>Node9&#45;&gt;Node10</title>
<g id="a_edge17_Node000009_Node000010"><a xlink:title=" ">
<path fill="none" stroke="#63b8ff" d="M283.02,-12.35C304.4,-12 331.34,-11.57 356.18,-11.16"/>
<polygon fill="#63b8ff" stroke="#63b8ff" points="355.96,-14.67 365.9,-11.01 355.84,-7.67 355.96,-14.67"/>
</a>
</g>
</g>
<!-- Node10&#45;&gt;Node10 -->
<g id="edge18_Node000010_Node000010" class="edge">
<title>Node10&#45;&gt;Node10</title>
<g id="a_edge18_Node000010_Node000010"><a xlink:title=" ">
<path fill="none" stroke="#63b8ff" d="M399.16,-20.34C386.47,-28.98 396.37,-38 428.88,-38 447.16,-38 458.29,-35.14 462.27,-31.11"/>
<polygon fill="#63b8ff" stroke="#63b8ff" points="465.63,-30.1 459.08,-21.77 459.01,-32.37 465.63,-30.1"/>
</a>
</g>
</g>
</g>
</svg>
