<?xml version="1.0" encoding="UTF-8" standalone="no"?>
<!DOCTYPE svg PUBLIC "-//W3C//DTD SVG 1.1//EN"
 "http://www.w3.org/Graphics/SVG/1.1/DTD/svg11.dtd">
<!-- Generated by graphviz version 16.1.0 (20260904.0139)
 -->
<!-- Title: USBD_GetRxCount Pages: 1 -->
<svg width="460pt" height="46pt"
 viewBox="0.00 0.00 460.00 46.00" xmlns="http://www.w3.org/2000/svg" xmlns:xlink="http://www.w3.org/1999/xlink">
<g id="graph0" class="graph" transform="scale(1 1) rotate(0) translate(4 42)">
<title>USBD_GetRxCount</title>
<!-- Node1 -->
<g id="Node000001" class="node">
<title>Node1</title>
<g id="a_Node000001"><a xlink:title="USBD_GetRxCount returns the received data length.">
<polygon fill="#999999" stroke="#666666" points="104.5,-20 0,-20 0,0 104.5,0 104.5,-20"/>
<text xml:space="preserve" text-anchor="middle" x="52.25" y="-6.5" font-family="Helvetica,sans-Serif" font-size="10.00">USBD_GetRxCount</text>
</a>
</g>
</g>
<!-- Node1&#45;&gt;Node1 -->
<g id="edge1_Node000001_Node000001" class="edge">
<title>Node1&#45;&gt;Node1</title>
<g id="a_edge1_Node000001_Node000001"><a xlink:title=" ">
<path fill="none" stroke="#63b8ff" d="M27.54,-20.34C16.98,-28.98 25.22,-38 52.25,-38 67.03,-38 76.19,-35.3 79.73,-31.44"/>
<polygon fill="#63b8ff" stroke="#63b8ff" points="83.15,-30.66 77.32,-21.81 76.35,-32.36 83.15,-30.66"/>
</a>
</g>
</g>
<!-- Node2 -->
<g id="Node000002" class="node">
<title>Node2</title>
<g id="a_Node000002"><a xlink:href="group___u_s_b_d___c_o_r_e___exported___functions_prototype.html#gaeb80f50482e04c046ba41f5ea58a1b2b" target="_top" xlink:title="Returns the last transferred packet size.">
<polygon fill="white" stroke="#666666" points="275,-20 140.5,-20 140.5,0 275,0 275,-20"/>
<text xml:space="preserve" text-anchor="middle" x="207.75" y="-6.5" font-family="Helvetica,sans-Serif" font-size="10.00">USBD_LL_GetRxDataSize</text>
</a>
</g>
</g>
<!-- Node1&#45;&gt;Node2 -->
<g id="edge2_Node000001_Node000002" class="edge">
<title>Node1&#45;&gt;Node2</title>
<g id="a_edge2_Node000001_Node000002"><a xlink:title=" ">
<path fill="none" stroke="#63b8ff" d="M104.79,-10C112.49,-10 120.56,-10 128.66,-10"/>
<polygon fill="#63b8ff" stroke="#63b8ff" points="128.57,-13.5 138.57,-10 128.57,-6.5 128.57,-13.5"/>
</a>
</g>
</g>
<!-- Node2&#45;&gt;Node2 -->
<g id="edge5_Node000002_Node000002" class="edge">
<title>Node2&#45;&gt;Node2</title>
<g id="a_edge5_Node000002_Node000002"><a xlink:title=" ">
<path fill="none" stroke="#63b8ff" d="M183.04,-20.34C172.48,-28.98 180.72,-38 207.75,-38 222.53,-38 231.69,-35.3 235.23,-31.44"/>
<polygon fill="#63b8ff" stroke="#63b8ff" points="238.65,-30.66 232.82,-21.81 231.85,-32.36 238.65,-30.66"/>
</a>
</g>
</g>
<!-- Node3 -->
<g id="Node000003" class="node">
<title>Node3</title>
<g id="a_Node000003"><a xlink:href="group___p_c_d___exported___functions___group3.html#ga66c7420120f03de795757ca33a1f64d3" target="_top" xlink:title="Get Received Data Size.">
<polygon fill="white" stroke="#666666" points="452.25,-20 311,-20 311,0 452.25,0 452.25,-20"/>
<text xml:space="preserve" text-anchor="middle" x="381.62" y="-6.5" font-family="Helvetica,sans-Serif" font-size="10.00">HAL_PCD_EP_GetRxCount</text>
</a>
</g>
</g>
<!-- Node2&#45;&gt;Node3 -->
<g id="edge3_Node000002_Node000003" class="edge">
<title>Node2&#45;&gt;Node3</title>
<g id="a_edge3_Node000002_Node000003"><a xlink:title=" ">
<path fill="none" stroke="#63b8ff" d="M275.2,-10C283.1,-10 291.23,-10 299.3,-10"/>
<polygon fill="#63b8ff" stroke="#63b8ff" points="299.14,-13.5 309.14,-10 299.14,-6.5 299.14,-13.5"/>
</a>
</g>
</g>
<!-- Node3&#45;&gt;Node3 -->
<g id="edge4_Node000003_Node000003" class="edge">
<title>Node3&#45;&gt;Node3</title>
<g id="a_edge4_Node000003_Node000003"><a xlink:title=" ">
<path fill="none" stroke="#63b8ff" d="M354,-20.34C342.19,-28.98 351.4,-38 381.62,-38 398.63,-38 408.98,-35.14 412.68,-31.11"/>
<polygon fill="#63b8ff" stroke="#63b8ff" points="416.08,-30.25 409.71,-21.78 409.41,-32.37 416.08,-30.25"/>
</a>
</g>
</g>
</g>
</svg>
