<?xml version="1.0" encoding="UTF-8" standalone="no"?>
<!DOCTYPE svg PUBLIC "-//W3C//DTD SVG 1.1//EN"
 "http://www.w3.org/Graphics/SVG/1.1/DTD/svg11.dtd">
<!-- Generated by graphviz version 16.1.0 (20260904.0139)
 -->
<!-- Title: I2C Exported Constants Pages: 1 -->
<svg width="395pt" height="382pt"
 viewBox="0.00 0.00 395.00 382.00" xmlns="http://www.w3.org/2000/svg" xmlns:xlink="http://www.w3.org/1999/xlink">
<g id="graph0" class="graph" transform="scale(1 1) rotate(0) translate(4 378)">
<title>I2C Exported Constants</title>
<!-- Node2 -->
<g id="Node000002" class="node">
<title>Node2</title>
<g id="a_Node000002"><a xlink:href="group___i2_c.html" target="_top" xlink:title="I2C HAL module driver.">
<polygon fill="white" stroke="#666666" points="31.75,-191 0,-191 0,-171 31.75,-171 31.75,-191"/>
<text xml:space="preserve" text-anchor="middle" x="15.88" y="-177.5" font-family="Helvetica,sans-Serif" font-size="10.00">I2C</text>
</a>
</g>
</g>
<!-- Node1 -->
<g id="Node000001" class="node">
<title>Node1</title>
<g id="a_Node000001"><a xlink:title=" ">
<polygon fill="#999999" stroke="#666666" points="189.5,-191 67.75,-191 67.75,-171 189.5,-171 189.5,-191"/>
<text xml:space="preserve" text-anchor="middle" x="128.62" y="-177.5" font-family="Helvetica,sans-Serif" font-size="10.00">I2C Exported Constants</text>
</a>
</g>
</g>
<!-- Node2&#45;&gt;Node1 -->
<g id="edge1" class="edge">
<title>Node2&#45;&gt;Node1</title>
<path fill="none" stroke="black" d="M43.19,-181C50.58,-181 58.93,-181 67.43,-181"/>
<polygon fill="black" stroke="black" points="43.32,-177.5 33.32,-181 43.32,-184.5 43.32,-177.5"/>
</g>
<!-- Node3 -->
<g id="Node000003" class="node">
<title>Node3</title>
<g id="a_Node000003"><a xlink:href="group___i2_c___flag__definition.html" target="_top" xlink:title=" ">
<polygon fill="white" stroke="#666666" points="354,-374 258.5,-374 258.5,-354 354,-354 354,-374"/>
<text xml:space="preserve" text-anchor="middle" x="306.25" y="-360.5" font-family="Helvetica,sans-Serif" font-size="10.00">I2C Flag definition</text>
</a>
</g>
</g>
<!-- Node1&#45;&gt;Node3 -->
<g id="edge2" class="edge">
<title>Node1&#45;&gt;Node3</title>
<path fill="none" stroke="black" d="M135.97,-202.34C147.65,-237.73 175.96,-308.28 225.5,-345 234.99,-352.03 246.71,-356.5 258.22,-359.33"/>
<polygon fill="black" stroke="black" points="139.33,-201.34 132.99,-192.85 132.65,-203.44 139.33,-201.34"/>
</g>
<!-- Node4 -->
<g id="Node000004" class="node">
<title>Node4</title>
<g id="a_Node000004"><a xlink:href="group___i2_c___interrupt__configuration__definition.html" target="_top" xlink:title="I2C Interrupt definition Elements values convention: 0xXXXXXXXX.">
<polygon fill="white" stroke="#666666" points="370.88,-336 241.62,-336 241.62,-304 370.88,-304 370.88,-336"/>
<text xml:space="preserve" text-anchor="start" x="249.62" y="-322.5" font-family="Helvetica,sans-Serif" font-size="10.00">I2C Interrupt configuration</text>
<text xml:space="preserve" text-anchor="middle" x="306.25" y="-310.5" font-family="Helvetica,sans-Serif" font-size="10.00"> definition</text>
</a>
</g>
</g>
<!-- Node1&#45;&gt;Node4 -->
<g id="edge3" class="edge">
<title>Node1&#45;&gt;Node4</title>
<path fill="none" stroke="black" d="M141.27,-200.86C157.17,-226.29 188.02,-270.03 225.5,-295 230.45,-298.3 235.86,-301.18 241.46,-303.7"/>
<polygon fill="black" stroke="black" points="144.37,-199.22 136.18,-192.49 138.39,-202.85 144.37,-199.22"/>
</g>
<!-- Node5 -->
<g id="Node000005" class="node">
<title>Node5</title>
<g id="a_Node000005"><a xlink:href="group___i2_c___memory___address___size.html" target="_top" xlink:title=" ">
<polygon fill="white" stroke="#666666" points="371.62,-286 240.88,-286 240.88,-266 371.62,-266 371.62,-286"/>
<text xml:space="preserve" text-anchor="middle" x="306.25" y="-272.5" font-family="Helvetica,sans-Serif" font-size="10.00">I2C Memory Address Size</text>
</a>
</g>
</g>
<!-- Node1&#45;&gt;Node5 -->
<g id="edge4" class="edge">
<title>Node1&#45;&gt;Node5</title>
<path fill="none" stroke="black" d="M147.41,-199.12C165.5,-216.51 195.12,-242.25 225.5,-257 232.54,-260.42 240.24,-263.25 247.98,-265.58"/>
<polygon fill="black" stroke="black" points="150.16,-196.92 140.58,-192.4 145.25,-201.9 150.16,-196.92"/>
</g>
<!-- Node6 -->
<g id="Node000006" class="node">
<title>Node6</title>
<g id="a_Node000006"><a xlink:href="group___i2_c___xfer_direction__definition.html" target="_top" xlink:title=" ">
<polygon fill="white" stroke="#666666" points="373.12,-248 239.38,-248 239.38,-228 373.12,-228 373.12,-248"/>
<text xml:space="preserve" text-anchor="middle" x="306.25" y="-234.5" font-family="Helvetica,sans-Serif" font-size="10.00">I2C XferDirection definition</text>
</a>
</g>
</g>
<!-- Node1&#45;&gt;Node6 -->
<g id="edge5" class="edge">
<title>Node1&#45;&gt;Node6</title>
<path fill="none" stroke="black" d="M163.67,-195.88C181.8,-203.44 204.62,-212.41 225.5,-219 235.41,-222.13 246.15,-225.01 256.45,-227.55"/>
<polygon fill="black" stroke="black" points="165.28,-192.76 154.71,-192.08 162.56,-199.2 165.28,-192.76"/>
</g>
<!-- Node7 -->
<g id="Node000007" class="node">
<title>Node7</title>
<g id="a_Node000007"><a xlink:href="group___i2_c___xfer_options__definition.html" target="_top" xlink:title=" ">
<polygon fill="white" stroke="#666666" points="370.5,-210 242,-210 242,-190 370.5,-190 370.5,-210"/>
<text xml:space="preserve" text-anchor="middle" x="306.25" y="-196.5" font-family="Helvetica,sans-Serif" font-size="10.00">I2C XferOptions definition</text>
</a>
</g>
</g>
<!-- Node1&#45;&gt;Node7 -->
<g id="edge6" class="edge">
<title>Node1&#45;&gt;Node7</title>
<path fill="none" stroke="black" d="M200.78,-188.7C214.32,-190.16 228.4,-191.69 241.67,-193.12"/>
<polygon fill="black" stroke="black" points="201.4,-185.24 191.08,-187.65 200.64,-192.2 201.4,-185.24"/>
</g>
<!-- Node8 -->
<g id="Node000008" class="node">
<title>Node8</title>
<g id="a_Node000008"><a xlink:href="group___i2_c__addressing__mode.html" target="_top" xlink:title=" ">
<polygon fill="white" stroke="#666666" points="360.75,-172 251.75,-172 251.75,-152 360.75,-152 360.75,-172"/>
<text xml:space="preserve" text-anchor="middle" x="306.25" y="-158.5" font-family="Helvetica,sans-Serif" font-size="10.00">I2C addressing mode</text>
</a>
</g>
</g>
<!-- Node1&#45;&gt;Node8 -->
<g id="edge7" class="edge">
<title>Node1&#45;&gt;Node8</title>
<path fill="none" stroke="black" d="M200.58,-173.32C217.55,-171.49 235.4,-169.56 251.46,-167.82"/>
<polygon fill="black" stroke="black" points="200.64,-169.8 191.08,-174.35 201.4,-176.76 200.64,-169.8"/>
</g>
<!-- Node9 -->
<g id="Node000009" class="node">
<title>Node9</title>
<g id="a_Node000009"><a xlink:href="group___i2_c__dual__addressing__mode.html" target="_top" xlink:title=" ">
<polygon fill="white" stroke="#666666" points="371.25,-134 241.25,-134 241.25,-114 371.25,-114 371.25,-134"/>
<text xml:space="preserve" text-anchor="middle" x="306.25" y="-120.5" font-family="Helvetica,sans-Serif" font-size="10.00">I2C dual addressing mode</text>
</a>
</g>
</g>
<!-- Node1&#45;&gt;Node9 -->
<g id="edge8" class="edge">
<title>Node1&#45;&gt;Node9</title>
<path fill="none" stroke="black" d="M163.67,-166.12C181.8,-158.56 204.62,-149.59 225.5,-143 235.41,-139.87 246.15,-136.99 256.45,-134.45"/>
<polygon fill="black" stroke="black" points="162.56,-162.8 154.71,-169.92 165.28,-169.24 162.56,-162.8"/>
</g>
<!-- Node10 -->
<g id="Node000010" class="node">
<title>Node10</title>
<g id="a_Node000010"><a xlink:href="group___i2_c__duty__cycle__in__fast__mode.html" target="_top" xlink:title=" ">
<polygon fill="white" stroke="#666666" points="374.62,-96 237.88,-96 237.88,-76 374.62,-76 374.62,-96"/>
<text xml:space="preserve" text-anchor="middle" x="306.25" y="-82.5" font-family="Helvetica,sans-Serif" font-size="10.00">I2C duty cycle in fast mode</text>
</a>
</g>
</g>
<!-- Node1&#45;&gt;Node10 -->
<g id="edge9" class="edge">
<title>Node1&#45;&gt;Node10</title>
<path fill="none" stroke="black" d="M147.41,-162.88C165.5,-145.49 195.12,-119.75 225.5,-105 232.54,-101.58 240.24,-98.75 247.98,-96.42"/>
<polygon fill="black" stroke="black" points="145.25,-160.1 140.58,-169.6 150.16,-165.08 145.25,-160.1"/>
</g>
<!-- Node11 -->
<g id="Node000011" class="node">
<title>Node11</title>
<g id="a_Node000011"><a xlink:href="group___i2_c__general__call__addressing__mode.html" target="_top" xlink:title=" ">
<polygon fill="white" stroke="#666666" points="387,-58 225.5,-58 225.5,-38 387,-38 387,-58"/>
<text xml:space="preserve" text-anchor="middle" x="306.25" y="-44.5" font-family="Helvetica,sans-Serif" font-size="10.00">I2C general call addressing mode</text>
</a>
</g>
</g>
<!-- Node1&#45;&gt;Node11 -->
<g id="edge10" class="edge">
<title>Node1&#45;&gt;Node11</title>
<path fill="none" stroke="black" d="M141.01,-160.73C156.63,-134.86 187.18,-90.64 225.5,-67 231.07,-63.56 237.22,-60.75 243.55,-58.44"/>
<polygon fill="black" stroke="black" points="138.04,-158.87 136.02,-169.27 144.09,-162.41 138.04,-158.87"/>
</g>
<!-- Node12 -->
<g id="Node000012" class="node">
<title>Node12</title>
<g id="a_Node000012"><a xlink:href="group___i2_c__nostretch__mode.html" target="_top" xlink:title=" ">
<polygon fill="white" stroke="#666666" points="357.38,-20 255.12,-20 255.12,0 357.38,0 357.38,-20"/>
<text xml:space="preserve" text-anchor="middle" x="306.25" y="-6.5" font-family="Helvetica,sans-Serif" font-size="10.00">I2C nostretch mode</text>
</a>
</g>
</g>
<!-- Node1&#45;&gt;Node12 -->
<g id="edge11" class="edge">
<title>Node1&#45;&gt;Node12</title>
<path fill="none" stroke="black" d="M136.96,-159.81C149.59,-126.56 178.72,-62.47 225.5,-29 234.07,-22.87 244.34,-18.7 254.63,-15.86"/>
<polygon fill="black" stroke="black" points="133.7,-158.54 133.56,-169.13 140.27,-160.93 133.7,-158.54"/>
</g>
</g>
</svg>
