<?xml version="1.0" encoding="UTF-8" standalone="no"?>
<!DOCTYPE svg PUBLIC "-//W3C//DTD SVG 1.1//EN"
 "http://www.w3.org/Graphics/SVG/1.1/DTD/svg11.dtd">
<!-- Generated by graphviz version 16.1.0 (20260904.0139)
 -->
<!-- Title: FLASH_OB_ProgramData Pages: 1 -->
<svg width="316pt" height="46pt"
 viewBox="0.00 0.00 316.00 46.00" xmlns="http://www.w3.org/2000/svg" xmlns:xlink="http://www.w3.org/1999/xlink">
<g id="graph0" class="graph" transform="scale(1 1) rotate(0) translate(4 42)">
<title>FLASH_OB_ProgramData</title>
<!-- Node1 -->
<g id="Node000001" class="node">
<title>Node1</title>
<g id="a_Node000001"><a xlink:title="Programs a half word at a specified Option Byte Data address.">
<polygon fill="#999999" stroke="#666666" points="308,-20 177.25,-20 177.25,0 308,0 308,-20"/>
<text xml:space="preserve" text-anchor="middle" x="242.62" y="-6.5" font-family="Helvetica,sans-Serif" font-size="10.00">FLASH_OB_ProgramData</text>
</a>
</g>
</g>
<!-- Node1&#45;&gt;Node1 -->
<g id="edge1_Node000001_Node000001" class="edge">
<title>Node1&#45;&gt;Node1</title>
<g id="a_edge1_Node000001_Node000001"><a xlink:title=" ">
<path fill="none" stroke="#63b8ff" d="M273.35,-31.11C269.68,-35.14 259.44,-38 242.62,-38 212.73,-38 203.62,-28.98 215.3,-20.34"/>
<polygon fill="#63b8ff" stroke="#63b8ff" points="276.75,-30.27 270.41,-21.78 270.07,-32.37 276.75,-30.27"/>
</a>
</g>
</g>
<!-- Node2 -->
<g id="Node000002" class="node">
<title>Node2</title>
<g id="a_Node000002"><a xlink:href="group___f_l_a_s_h_ex___exported___functions___group2.html#ga001dd4a8defa9eb24a17c4df5953a41d" target="_top" xlink:title="Program option bytes.">
<polygon fill="white" stroke="#666666" points="141.25,-20 0,-20 0,0 141.25,0 141.25,-20"/>
<text xml:space="preserve" text-anchor="middle" x="70.62" y="-6.5" font-family="Helvetica,sans-Serif" font-size="10.00">HAL_FLASHEx_OBProgram</text>
</a>
</g>
</g>
<!-- Node1&#45;&gt;Node2 -->
<g id="edge2_Node000001_Node000002" class="edge">
<title>Node1&#45;&gt;Node2</title>
<g id="a_edge2_Node000001_Node000002"><a xlink:title=" ">
<path fill="none" stroke="#63b8ff" d="M165.37,-10C157.45,-10 149.43,-10 141.58,-10"/>
<polygon fill="#63b8ff" stroke="#63b8ff" points="165.36,-13.5 175.36,-10 165.36,-6.5 165.36,-13.5"/>
</a>
</g>
</g>
<!-- Node2&#45;&gt;Node2 -->
<g id="edge3_Node000002_Node000002" class="edge">
<title>Node2&#45;&gt;Node2</title>
<g id="a_edge3_Node000002_Node000002"><a xlink:title=" ">
<path fill="none" stroke="#63b8ff" d="M101.35,-31.11C97.68,-35.14 87.44,-38 70.62,-38 40.73,-38 31.62,-28.98 43.3,-20.34"/>
<polygon fill="#63b8ff" stroke="#63b8ff" points="104.75,-30.27 98.41,-21.78 98.07,-32.37 104.75,-30.27"/>
</a>
</g>
</g>
</g>
</svg>
