<?xml version="1.0" encoding="UTF-8" standalone="no"?>
<!DOCTYPE svg PUBLIC "-//W3C//DTD SVG 1.1//EN"
 "http://www.w3.org/Graphics/SVG/1.1/DTD/svg11.dtd">
<!-- Generated by graphviz version 16.1.0 (20260904.0139)
 -->
<!-- Title: STM32F1xx_HAL_Driver Pages: 1 -->
<svg width="247pt" height="788pt"
 viewBox="0.00 0.00 247.00 788.00" xmlns="http://www.w3.org/2000/svg" xmlns:xlink="http://www.w3.org/1999/xlink">
<g id="graph0" class="graph" transform="scale(1 1) rotate(0) translate(4 784)">
<title>STM32F1xx_HAL_Driver</title>
<!-- Node2 -->
<g id="Node000002" class="node">
<title>Node2</title>
<g id="a_Node000002"><a xlink:href="group___a_d_c.html" target="_top" xlink:title="ADC HAL module driver.">
<polygon fill="white" stroke="#666666" points="219.12,-780 181.38,-780 181.38,-760 219.12,-760 219.12,-780"/>
<text xml:space="preserve" text-anchor="middle" x="200.25" y="-766.5" font-family="Helvetica,sans-Serif" font-size="10.00">ADC</text>
</a>
</g>
</g>
<!-- Node3 -->
<g id="Node000003" class="node">
<title>Node3</title>
<g id="a_Node000003"><a xlink:href="group___a_d_c_ex.html" target="_top" xlink:title="ADC Extension HAL module driver.">
<polygon fill="white" stroke="#666666" points="225.12,-742 175.38,-742 175.38,-722 225.12,-722 225.12,-742"/>
<text xml:space="preserve" text-anchor="middle" x="200.25" y="-728.5" font-family="Helvetica,sans-Serif" font-size="10.00">ADCEx</text>
</a>
</g>
</g>
<!-- Node4 -->
<g id="Node000004" class="node">
<title>Node4</title>
<g id="a_Node000004"><a xlink:href="group___c_o_r_t_e_x.html" target="_top" xlink:title="CORTEX HAL module driver.">
<polygon fill="white" stroke="#666666" points="228.88,-704 171.62,-704 171.62,-684 228.88,-684 228.88,-704"/>
<text xml:space="preserve" text-anchor="middle" x="200.25" y="-690.5" font-family="Helvetica,sans-Serif" font-size="10.00">CORTEX</text>
</a>
</g>
</g>
<!-- Node5 -->
<g id="Node000005" class="node">
<title>Node5</title>
<g id="a_Node000005"><a xlink:href="group___d_m_a.html" target="_top" xlink:title="DMA HAL module driver.">
<polygon fill="white" stroke="#666666" points="219.5,-666 181,-666 181,-646 219.5,-646 219.5,-666"/>
<text xml:space="preserve" text-anchor="middle" x="200.25" y="-652.5" font-family="Helvetica,sans-Serif" font-size="10.00">DMA</text>
</a>
</g>
</g>
<!-- Node6 -->
<g id="Node000006" class="node">
<title>Node6</title>
<g id="a_Node000006"><a xlink:href="group___d_m_a_ex.html" target="_top" xlink:title=" ">
<polygon fill="white" stroke="#666666" points="225.5,-628 175,-628 175,-608 225.5,-608 225.5,-628"/>
<text xml:space="preserve" text-anchor="middle" x="200.25" y="-614.5" font-family="Helvetica,sans-Serif" font-size="10.00">DMAEx</text>
</a>
</g>
</g>
<!-- Node8 -->
<g id="Node000008" class="node">
<title>Node8</title>
<g id="a_Node000008"><a xlink:href="group___e_x_t_i.html" target="_top" xlink:title="EXTI HAL module driver.">
<polygon fill="white" stroke="#666666" points="219.5,-590 181,-590 181,-570 219.5,-570 219.5,-590"/>
<text xml:space="preserve" text-anchor="middle" x="200.25" y="-576.5" font-family="Helvetica,sans-Serif" font-size="10.00">EXTI</text>
</a>
</g>
</g>
<!-- Node9 -->
<g id="Node000009" class="node">
<title>Node9</title>
<g id="a_Node000009"><a xlink:href="group___f_l_a_s_h.html" target="_top" xlink:title="FLASH HAL module driver.">
<polygon fill="white" stroke="#666666" points="224.38,-552 176.12,-552 176.12,-532 224.38,-532 224.38,-552"/>
<text xml:space="preserve" text-anchor="middle" x="200.25" y="-538.5" font-family="Helvetica,sans-Serif" font-size="10.00">FLASH</text>
</a>
</g>
</g>
<!-- Node10 -->
<g id="Node000010" class="node">
<title>Node10</title>
<g id="a_Node000010"><a xlink:href="group___f_l_a_s_h_ex.html" target="_top" xlink:title="FLASH HAL Extension module driver.">
<polygon fill="white" stroke="#666666" points="230.38,-514 170.12,-514 170.12,-494 230.38,-494 230.38,-514"/>
<text xml:space="preserve" text-anchor="middle" x="200.25" y="-500.5" font-family="Helvetica,sans-Serif" font-size="10.00">FLASHEx</text>
</a>
</g>
</g>
<!-- Node11 -->
<g id="Node000011" class="node">
<title>Node11</title>
<g id="a_Node000011"><a xlink:href="group___g_p_i_o.html" target="_top" xlink:title="GPIO HAL module driver.">
<polygon fill="white" stroke="#666666" points="220.62,-476 179.88,-476 179.88,-456 220.62,-456 220.62,-476"/>
<text xml:space="preserve" text-anchor="middle" x="200.25" y="-462.5" font-family="Helvetica,sans-Serif" font-size="10.00">GPIO</text>
</a>
</g>
</g>
<!-- Node12 -->
<g id="Node000012" class="node">
<title>Node12</title>
<g id="a_Node000012"><a xlink:href="group___g_p_i_o_ex.html" target="_top" xlink:title="GPIO HAL module driver.">
<polygon fill="white" stroke="#666666" points="226.62,-438 173.88,-438 173.88,-418 226.62,-418 226.62,-438"/>
<text xml:space="preserve" text-anchor="middle" x="200.25" y="-424.5" font-family="Helvetica,sans-Serif" font-size="10.00">GPIOEx</text>
</a>
</g>
</g>
<!-- Node13 -->
<g id="Node000013" class="node">
<title>Node13</title>
<g id="a_Node000013"><a xlink:href="group___h_a_l.html" target="_top" xlink:title="HAL module driver.">
<polygon fill="white" stroke="#666666" points="218,-400 182.5,-400 182.5,-380 218,-380 218,-400"/>
<text xml:space="preserve" text-anchor="middle" x="200.25" y="-386.5" font-family="Helvetica,sans-Serif" font-size="10.00">HAL</text>
</a>
</g>
</g>
<!-- Node14 -->
<g id="Node000014" class="node">
<title>Node14</title>
<g id="a_Node000014"><a xlink:href="group___i2_c.html" target="_top" xlink:title="I2C HAL module driver.">
<polygon fill="white" stroke="#666666" points="216.12,-362 184.38,-362 184.38,-342 216.12,-342 216.12,-362"/>
<text xml:space="preserve" text-anchor="middle" x="200.25" y="-348.5" font-family="Helvetica,sans-Serif" font-size="10.00">I2C</text>
</a>
</g>
</g>
<!-- Node15 -->
<g id="Node000015" class="node">
<title>Node15</title>
<g id="a_Node000015"><a xlink:href="group___p_c_d.html" target="_top" xlink:title="PCD HAL module driver.">
<polygon fill="white" stroke="#666666" points="219.12,-324 181.38,-324 181.38,-304 219.12,-304 219.12,-324"/>
<text xml:space="preserve" text-anchor="middle" x="200.25" y="-310.5" font-family="Helvetica,sans-Serif" font-size="10.00">PCD</text>
</a>
</g>
</g>
<!-- Node16 -->
<g id="Node000016" class="node">
<title>Node16</title>
<g id="a_Node000016"><a xlink:href="group___p_c_d_ex.html" target="_top" xlink:title="PCD Extended HAL module driver.">
<polygon fill="white" stroke="#666666" points="225.12,-286 175.38,-286 175.38,-266 225.12,-266 225.12,-286"/>
<text xml:space="preserve" text-anchor="middle" x="200.25" y="-272.5" font-family="Helvetica,sans-Serif" font-size="10.00">PCDEx</text>
</a>
</g>
</g>
<!-- Node17 -->
<g id="Node000017" class="node">
<title>Node17</title>
<g id="a_Node000017"><a xlink:href="group___p_w_r.html" target="_top" xlink:title="PWR HAL module driver.">
<polygon fill="white" stroke="#666666" points="220.25,-248 180.25,-248 180.25,-228 220.25,-228 220.25,-248"/>
<text xml:space="preserve" text-anchor="middle" x="200.25" y="-234.5" font-family="Helvetica,sans-Serif" font-size="10.00">PWR</text>
</a>
</g>
</g>
<!-- Node18 -->
<g id="Node000018" class="node">
<title>Node18</title>
<g id="a_Node000018"><a xlink:href="group___r_c_c.html" target="_top" xlink:title="RCC HAL module driver.">
<polygon fill="white" stroke="#666666" points="219.5,-210 181,-210 181,-190 219.5,-190 219.5,-210"/>
<text xml:space="preserve" text-anchor="middle" x="200.25" y="-196.5" font-family="Helvetica,sans-Serif" font-size="10.00">RCC</text>
</a>
</g>
</g>
<!-- Node19 -->
<g id="Node000019" class="node">
<title>Node19</title>
<g id="a_Node000019"><a xlink:href="group___r_c_c_ex.html" target="_top" xlink:title="RCC Extension HAL module driver.">
<polygon fill="white" stroke="#666666" points="225.5,-172 175,-172 175,-152 225.5,-152 225.5,-172"/>
<text xml:space="preserve" text-anchor="middle" x="200.25" y="-158.5" font-family="Helvetica,sans-Serif" font-size="10.00">RCCEx</text>
</a>
</g>
</g>
<!-- Node1 -->
<g id="Node000001" class="node">
<title>Node1</title>
<g id="a_Node000001"><a xlink:title=" ">
<polygon fill="#999999" stroke="#666666" points="125.5,-400 0,-400 0,-380 125.5,-380 125.5,-400"/>
<text xml:space="preserve" text-anchor="middle" x="62.75" y="-386.5" font-family="Helvetica,sans-Serif" font-size="10.00">STM32F1xx_HAL_Driver</text>
</a>
</g>
</g>
<!-- Node1&#45;&gt;Node2 -->
<g id="edge1" class="edge">
<title>Node1&#45;&gt;Node2</title>
<path fill="none" stroke="black" d="M63.75,-411.68C64.88,-472.3 75.83,-646.02 161.5,-751 166.51,-757.14 174.01,-761.48 181.01,-764.45"/>
<polygon fill="black" stroke="black" points="67.25,-411.71 63.65,-401.74 60.25,-411.78 67.25,-411.71"/>
</g>
<!-- Node1&#45;&gt;Node3 -->
<g id="edge2" class="edge">
<title>Node1&#45;&gt;Node3</title>
<path fill="none" stroke="black" d="M64.59,-411.62C67.87,-467.83 83.84,-620.65 161.5,-713 165.18,-717.38 170.13,-720.86 175.22,-723.57"/>
<polygon fill="black" stroke="black" points="68.1,-411.64 64.11,-401.82 61.11,-411.98 68.1,-411.64"/>
</g>
<!-- Node1&#45;&gt;Node4 -->
<g id="edge3" class="edge">
<title>Node1&#45;&gt;Node4</title>
<path fill="none" stroke="black" d="M65.66,-411.8C71.26,-463.51 91.91,-595.25 161.5,-675 164.49,-678.43 168.25,-681.31 172.22,-683.71"/>
<polygon fill="black" stroke="black" points="69.16,-411.57 64.69,-401.96 62.19,-412.25 69.16,-411.57"/>
</g>
<!-- Node1&#45;&gt;Node5 -->
<g id="edge4" class="edge">
<title>Node1&#45;&gt;Node5</title>
<path fill="none" stroke="black" d="M67,-411.66C75.02,-458.31 99.77,-569.49 161.5,-637 166.65,-642.63 173.84,-646.82 180.57,-649.82"/>
<polygon fill="black" stroke="black" points="70.45,-411.12 65.4,-401.8 63.54,-412.23 70.45,-411.12"/>
</g>
<!-- Node1&#45;&gt;Node6 -->
<g id="edge5" class="edge">
<title>Node1&#45;&gt;Node6</title>
<path fill="none" stroke="black" d="M68.65,-411.07C79.15,-452.04 107.36,-543.28 161.5,-599 165.28,-602.89 170.03,-606.12 174.88,-608.75"/>
<polygon fill="black" stroke="black" points="72.1,-410.41 66.32,-401.54 65.3,-412.08 72.1,-410.41"/>
</g>
<!-- Node1&#45;&gt;Node8 -->
<g id="edge7" class="edge">
<title>Node1&#45;&gt;Node8</title>
<path fill="none" stroke="black" d="M71.12,-411.01C84.34,-446.07 115.11,-517.01 161.5,-561 166.93,-566.15 174.03,-570.21 180.6,-573.24"/>
<polygon fill="black" stroke="black" points="74.42,-409.82 67.7,-401.62 67.84,-412.22 74.42,-409.82"/>
</g>
<!-- Node1&#45;&gt;Node9 -->
<g id="edge8" class="edge">
<title>Node1&#45;&gt;Node9</title>
<path fill="none" stroke="black" d="M74.51,-410.19C90.38,-438.45 122.47,-490.02 161.5,-523 165.76,-526.6 170.82,-529.74 175.82,-532.37"/>
<polygon fill="black" stroke="black" points="77.67,-408.68 69.79,-401.6 71.53,-412.05 77.67,-408.68"/>
</g>
<!-- Node1&#45;&gt;Node10 -->
<g id="edge9" class="edge">
<title>Node1&#45;&gt;Node10</title>
<path fill="none" stroke="black" d="M80.04,-408.98C98.37,-429.53 129.74,-462.39 161.5,-485 165.92,-488.15 170.94,-491.07 175.85,-493.62"/>
<polygon fill="black" stroke="black" points="82.81,-406.83 73.59,-401.62 77.55,-411.45 82.81,-406.83"/>
</g>
<!-- Node1&#45;&gt;Node11 -->
<g id="edge10" class="edge">
<title>Node1&#45;&gt;Node11</title>
<path fill="none" stroke="black" d="M90.59,-406.25C110.08,-417.91 137.2,-433.82 161.5,-447 167.3,-450.15 173.69,-453.43 179.54,-456.37"/>
<polygon fill="black" stroke="black" points="92.54,-403.34 82.17,-401.19 88.94,-409.34 92.54,-403.34"/>
</g>
<!-- Node1&#45;&gt;Node12 -->
<g id="edge11" class="edge">
<title>Node1&#45;&gt;Node12</title>
<path fill="none" stroke="black" d="M112.02,-403.54C132.78,-409.36 156.22,-415.93 173.56,-420.8"/>
<polygon fill="black" stroke="black" points="113.17,-400.22 102.59,-400.89 111.28,-406.96 113.17,-400.22"/>
</g>
<!-- Node1&#45;&gt;Node13 -->
<g id="edge12" class="edge">
<title>Node1&#45;&gt;Node13</title>
<path fill="none" stroke="black" d="M137.07,-390C153.96,-390 170.39,-390 182.11,-390"/>
<polygon fill="black" stroke="black" points="137.46,-386.5 127.46,-390 137.46,-393.5 137.46,-386.5"/>
</g>
<!-- Node1&#45;&gt;Node14 -->
<g id="edge13" class="edge">
<title>Node1&#45;&gt;Node14</title>
<path fill="none" stroke="black" d="M112.04,-376.46C137.3,-369.37 166.5,-361.18 183.89,-356.31"/>
<polygon fill="black" stroke="black" points="111.28,-373.04 102.59,-379.11 113.17,-379.78 111.28,-373.04"/>
</g>
<!-- Node1&#45;&gt;Node15 -->
<g id="edge14" class="edge">
<title>Node1&#45;&gt;Node15</title>
<path fill="none" stroke="black" d="M90.59,-373.75C110.08,-362.09 137.2,-346.18 161.5,-333 167.82,-329.57 174.83,-325.98 181.08,-322.86"/>
<polygon fill="black" stroke="black" points="88.94,-370.66 82.17,-378.81 92.54,-376.66 88.94,-370.66"/>
</g>
<!-- Node1&#45;&gt;Node16 -->
<g id="edge15" class="edge">
<title>Node1&#45;&gt;Node16</title>
<path fill="none" stroke="black" d="M80.04,-371.02C98.37,-350.47 129.74,-317.61 161.5,-295 165.92,-291.85 170.94,-288.93 175.85,-286.38"/>
<polygon fill="black" stroke="black" points="77.55,-368.55 73.59,-378.38 82.81,-373.17 77.55,-368.55"/>
</g>
<!-- Node1&#45;&gt;Node17 -->
<g id="edge16" class="edge">
<title>Node1&#45;&gt;Node17</title>
<path fill="none" stroke="black" d="M74.51,-369.81C90.38,-341.55 122.47,-289.98 161.5,-257 166.99,-252.36 173.81,-248.49 180.14,-245.47"/>
<polygon fill="black" stroke="black" points="71.53,-367.95 69.79,-378.4 77.67,-371.32 71.53,-367.95"/>
</g>
<!-- Node1&#45;&gt;Node18 -->
<g id="edge17" class="edge">
<title>Node1&#45;&gt;Node18</title>
<path fill="none" stroke="black" d="M71.12,-368.99C84.34,-333.93 115.11,-262.99 161.5,-219 166.93,-213.85 174.03,-209.79 180.6,-206.76"/>
<polygon fill="black" stroke="black" points="67.84,-367.78 67.7,-378.38 74.42,-370.18 67.84,-367.78"/>
</g>
<!-- Node1&#45;&gt;Node19 -->
<g id="edge18" class="edge">
<title>Node1&#45;&gt;Node19</title>
<path fill="none" stroke="black" d="M68.65,-368.93C79.15,-327.96 107.36,-236.72 161.5,-181 165.28,-177.11 170.03,-173.88 174.88,-171.25"/>
<polygon fill="black" stroke="black" points="65.3,-367.92 66.32,-378.46 72.1,-369.59 65.3,-367.92"/>
</g>
<!-- Node20 -->
<g id="Node000020" class="node">
<title>Node20</title>
<g id="a_Node000020"><a xlink:href="group___t_i_m.html" target="_top" xlink:title="TIM HAL module driver.">
<polygon fill="white" stroke="#666666" points="216.88,-134 183.62,-134 183.62,-114 216.88,-114 216.88,-134"/>
<text xml:space="preserve" text-anchor="middle" x="200.25" y="-120.5" font-family="Helvetica,sans-Serif" font-size="10.00">TIM</text>
</a>
</g>
</g>
<!-- Node1&#45;&gt;Node20 -->
<g id="edge19" class="edge">
<title>Node1&#45;&gt;Node20</title>
<path fill="none" stroke="black" d="M67,-368.34C75.02,-321.69 99.77,-210.51 161.5,-143 167.34,-136.61 175.82,-132.07 183.26,-129.04"/>
<polygon fill="black" stroke="black" points="63.54,-367.77 65.4,-378.2 70.45,-368.88 63.54,-367.77"/>
</g>
<!-- Node21 -->
<g id="Node000021" class="node">
<title>Node21</title>
<g id="a_Node000021"><a xlink:href="group___t_i_m_ex.html" target="_top" xlink:title="TIM Extended HAL module driver.">
<polygon fill="white" stroke="#666666" points="222.88,-96 177.62,-96 177.62,-76 222.88,-76 222.88,-96"/>
<text xml:space="preserve" text-anchor="middle" x="200.25" y="-82.5" font-family="Helvetica,sans-Serif" font-size="10.00">TIMEx</text>
</a>
</g>
</g>
<!-- Node1&#45;&gt;Node21 -->
<g id="edge20" class="edge">
<title>Node1&#45;&gt;Node21</title>
<path fill="none" stroke="black" d="M65.66,-368.2C71.26,-316.49 91.91,-184.75 161.5,-105 165.75,-100.14 171.53,-96.37 177.3,-93.52"/>
<polygon fill="black" stroke="black" points="62.19,-367.75 64.69,-378.04 69.16,-368.43 62.19,-367.75"/>
</g>
<!-- Node22 -->
<g id="Node000022" class="node">
<title>Node22</title>
<g id="a_Node000022"><a xlink:href="group___u_a_r_t.html" target="_top" xlink:title="HAL UART module driver.">
<polygon fill="white" stroke="#666666" points="221.75,-58 178.75,-58 178.75,-38 221.75,-38 221.75,-58"/>
<text xml:space="preserve" text-anchor="middle" x="200.25" y="-44.5" font-family="Helvetica,sans-Serif" font-size="10.00">UART</text>
</a>
</g>
</g>
<!-- Node1&#45;&gt;Node22 -->
<g id="edge21" class="edge">
<title>Node1&#45;&gt;Node22</title>
<path fill="none" stroke="black" d="M64.59,-368.38C67.87,-312.17 83.84,-159.35 161.5,-67 165.94,-61.72 172.21,-57.76 178.36,-54.85"/>
<polygon fill="black" stroke="black" points="61.11,-368.02 64.11,-378.18 68.1,-368.36 61.11,-368.02"/>
</g>
<!-- Node7 -->
<g id="Node000007" class="node">
<title>Node7</title>
<g id="a_Node000007"><a xlink:href="group___u_s_b___l_l.html" target="_top" xlink:title=" ">
<polygon fill="white" stroke="#666666" points="239,-20 161.5,-20 161.5,0 239,0 239,-20"/>
<text xml:space="preserve" text-anchor="middle" x="200.25" y="-6.5" font-family="Helvetica,sans-Serif" font-size="10.00">Device Speed</text>
</a>
</g>
</g>
<!-- Node1&#45;&gt;Node7 -->
<g id="edge6" class="edge">
<title>Node1&#45;&gt;Node7</title>
<path fill="none" stroke="black" d="M63.75,-368.32C64.88,-307.7 75.83,-133.98 161.5,-29 164.28,-25.59 167.84,-22.73 171.64,-20.36"/>
<polygon fill="black" stroke="black" points="60.25,-368.22 63.65,-378.26 67.25,-368.29 60.25,-368.22"/>
</g>
</g>
</svg>
