<?xml version="1.0" encoding="UTF-8" standalone="no"?>
<!DOCTYPE svg PUBLIC "-//W3C//DTD SVG 1.1//EN"
 "http://www.w3.org/Graphics/SVG/1.1/DTD/svg11.dtd">
<!-- Generated by graphviz version 16.1.0 (20260904.0139)
 -->
<!-- Title: RCC Pages: 1 -->
<svg width="364pt" height="104pt"
 viewBox="0.00 0.00 364.00 104.00" xmlns="http://www.w3.org/2000/svg" xmlns:xlink="http://www.w3.org/1999/xlink">
<g id="graph0" class="graph" transform="scale(1 1) rotate(0) translate(4 100)">
<title>RCC</title>
<!-- Node1 -->
<g id="Node000001" class="node">
<title>Node1</title>
<g id="a_Node000001"><a xlink:title=" ">
<polygon fill="#999999" stroke="#666666" points="191,-58 152.5,-58 152.5,-38 191,-38 191,-58"/>
<text xml:space="preserve" text-anchor="middle" x="171.75" y="-44.5" font-family="Helvetica,sans-Serif" font-size="10.00">RCC</text>
</a>
</g>
</g>
<!-- Node3 -->
<g id="Node000003" class="node">
<title>Node3</title>
<g id="a_Node000003"><a xlink:href="group___r_c_c___l_l___exported___constants.html" target="_top" xlink:title=" ">
<polygon fill="white" stroke="#666666" points="355.5,-96 227,-96 227,-76 355.5,-76 355.5,-96"/>
<text xml:space="preserve" text-anchor="middle" x="291.25" y="-82.5" font-family="Helvetica,sans-Serif" font-size="10.00">RCC Exported Constants</text>
</a>
</g>
</g>
<!-- Node1&#45;&gt;Node3 -->
<g id="edge2" class="edge">
<title>Node1&#45;&gt;Node3</title>
<path fill="none" stroke="black" d="M202.05,-58.53C210.11,-61.36 218.87,-64.36 227,-67 235.83,-69.87 245.41,-72.83 254.37,-75.53"/>
<polygon fill="black" stroke="black" points="203.28,-55.26 192.69,-55.22 200.95,-61.86 203.28,-55.26"/>
</g>
<!-- Node4 -->
<g id="Node000004" class="node">
<title>Node4</title>
<g id="a_Node000004"><a xlink:href="group___r_c_c___l_l___exported___functions.html" target="_top" xlink:title=" ">
<polygon fill="white" stroke="#666666" points="354.38,-58 228.12,-58 228.12,-38 354.38,-38 354.38,-58"/>
<text xml:space="preserve" text-anchor="middle" x="291.25" y="-44.5" font-family="Helvetica,sans-Serif" font-size="10.00">RCC Exported Functions</text>
</a>
</g>
</g>
<!-- Node1&#45;&gt;Node4 -->
<g id="edge3" class="edge">
<title>Node1&#45;&gt;Node4</title>
<path fill="none" stroke="black" d="M202.66,-48C210.38,-48 218.98,-48 227.7,-48"/>
<polygon fill="black" stroke="black" points="202.88,-44.5 192.88,-48 202.88,-51.5 202.88,-44.5"/>
</g>
<!-- Node5 -->
<g id="Node000005" class="node">
<title>Node5</title>
<g id="a_Node000005"><a xlink:href="group___r_c_c___l_l___exported___macros.html" target="_top" xlink:title=" ">
<polygon fill="white" stroke="#666666" points="349.12,-20 233.38,-20 233.38,0 349.12,0 349.12,-20"/>
<text xml:space="preserve" text-anchor="middle" x="291.25" y="-6.5" font-family="Helvetica,sans-Serif" font-size="10.00">RCC Exported Macros</text>
</a>
</g>
</g>
<!-- Node1&#45;&gt;Node5 -->
<g id="edge4" class="edge">
<title>Node1&#45;&gt;Node5</title>
<path fill="none" stroke="black" d="M202.05,-37.47C210.11,-34.64 218.87,-31.64 227,-29 235.83,-26.13 245.41,-23.17 254.37,-20.47"/>
<polygon fill="black" stroke="black" points="200.95,-34.14 192.69,-40.78 203.28,-40.74 200.95,-34.14"/>
</g>
<!-- Node2 -->
<g id="Node000002" class="node">
<title>Node2</title>
<g id="a_Node000002"><a xlink:href="group___s_t_m32_f1xx___l_l___driver.html" target="_top" xlink:title=" ">
<polygon fill="white" stroke="#666666" points="116.5,-58 0,-58 0,-38 116.5,-38 116.5,-58"/>
<text xml:space="preserve" text-anchor="middle" x="58.25" y="-44.5" font-family="Helvetica,sans-Serif" font-size="10.00">STM32F1xx_LL_Driver</text>
</a>
</g>
</g>
<!-- Node2&#45;&gt;Node1 -->
<g id="edge1" class="edge">
<title>Node2&#45;&gt;Node1</title>
<path fill="none" stroke="black" d="M128.21,-48C136.96,-48 145.24,-48 152.13,-48"/>
<polygon fill="black" stroke="black" points="128.47,-44.5 118.47,-48 128.47,-51.5 128.47,-44.5"/>
</g>
</g>
</svg>
