<?xml version="1.0" encoding="UTF-8" standalone="no"?>
<!DOCTYPE svg PUBLIC "-//W3C//DTD SVG 1.1//EN"
 "http://www.w3.org/Graphics/SVG/1.1/DTD/svg11.dtd">
<!-- Generated by graphviz version 16.1.0 (20260904.0139)
 -->
<!-- Title: HAL_RCC_GetPCLK2Freq Pages: 1 -->
<!--zoomable 338 -->

<svg id="main" version="1.1" xmlns="http://www.w3.org/2000/svg" xmlns:xlink="http://www.w3.org/1999/xlink" xml:space="preserve">

<style type="text/css"><![CDATA[
.node, .edge {opacity: 0.7;}
.node.selected, .edge.selected {opacity: 1;}
.edge:hover path { stroke: red; }
.edge:hover polygon { stroke: red; fill: red; }
]]></style>

<defs>
  <circle id="rim" cx="0" cy="0" r="7"/>
  <circle id="rim2" cx="0" cy="0" r="3.5"/>
  <g id="zoomPlus">
    <use xlink:href="#rim" fill="#404040"><set attributeName="fill" to="#808080" begin="zoomplus.mouseover" end="zoomplus.mouseout"/></use>
    <path d="M-4,0h8M0,-4v8" fill="none" stroke="white" stroke-width="1.5" pointer-events="none"/>
  </g>
  <g id="zoomMin">
    <use xlink:href="#rim" fill="#404040"><set attributeName="fill" to="#808080" begin="zoomminus.mouseover" end="zoomminus.mouseout"/></use>
    <path d="M-4,0h8" fill="none" stroke="white" stroke-width="1.5" pointer-events="none"/>
  </g>
  <g id="arrowUp" transform="translate(30 24)">
    <use xlink:href="#rim"/>
    <path pointer-events="none" fill="none" stroke="white" stroke-width="1.5" d="M0,-3.0v7 M-2.5,-0.5L0,-3.0L2.5,-0.5"/>
  </g>
  <g id="arrowRight" transform="rotate(90) translate(36 -43)">
    <use xlink:href="#rim"/>
    <path pointer-events="none" fill="none" stroke="white" stroke-width="1.5" d="M0,-3.0v7 M-2.5,-0.5L0,-3.0L2.5,-0.5"/>
  </g>
  <g id="arrowDown" transform="rotate(180) translate(-30 -48)">
    <use xlink:href="#rim"/>
    <path pointer-events="none" fill="none" stroke="white" stroke-width="1.5" d="M0,-3.0v7 M-2.5,-0.5L0,-3.0L2.5,-0.5"/>
  </g>
  <g id="arrowLeft" transform="rotate(270) translate(-36 17)">
    <use xlink:href="#rim"/>
    <path pointer-events="none" fill="none" stroke="white" stroke-width="1.5" d="M0,-3.0v7 M-2.5,-0.5L0,-3.0L2.5,-0.5"/>
  </g>
  <g id="resetDef">
    <use xlink:href="#rim2" fill="#404040"><set attributeName="fill" to="#808080" begin="reset.mouseover" end="reset.mouseout"/></use>
  </g>
</defs>
<script type="application/ecmascript" xlink:href="svg.min.js"/>
<svg id="graph" class="graph" data-view-width="765" data-view-height="338" data-section-id="dynsection-16">
<g id="viewport">
<title>HAL_RCC_GetPCLK2Freq</title>
<!-- Node1 -->
<g id="Node000001" class="node">
<title>Node1</title>
<g id="a_Node000001"><a xlink:title="Returns the PCLK2 frequency.">
<polygon fill="#999999" stroke="#666666" points="757.23,-191 621.98,-191 621.98,-171 757.23,-171 757.23,-191"/>
<text xml:space="preserve" text-anchor="middle" x="689.61" y="-177.5" font-family="Helvetica,sans-Serif" font-size="10.00">HAL_RCC_GetPCLK2Freq</text>
</a>
</g>
</g>
<!-- Node1&#45;&gt;Node1 -->
<g id="edge1_Node000001_Node000001" class="edge">
<title>Node1&#45;&gt;Node1</title>
<g id="a_edge1_Node000001_Node000001"><a xlink:title=" ">
<path fill="none" stroke="#63b8ff" d="M722.67,-202.11C718.73,-206.14 707.71,-209 689.61,-209 657.43,-209 647.62,-199.98 660.19,-191.34"/>
<polygon fill="#63b8ff" stroke="#63b8ff" points="726.03,-201.12 719.51,-192.77 719.4,-203.37 726.03,-201.12"/>
</a>
</g>
</g>
<!-- Node2 -->
<g id="Node000002" class="node">
<title>Node2</title>
<g id="a_Node000002"><a xlink:href="group___r_c_c_ex___exported___functions___group1.html#ga14acaeb88163a6bb0839470b753ba1bd" target="_top" xlink:title="Returns the peripheral clock frequency.">
<polygon fill="white" stroke="#666666" points="585.98,-250 422.98,-250 422.98,-230 585.98,-230 585.98,-250"/>
<text xml:space="preserve" text-anchor="middle" x="504.48" y="-236.5" font-family="Helvetica,sans-Serif" font-size="10.00">HAL_RCCEx_GetPeriphCLKFreq</text>
</a>
</g>
</g>
<!-- Node1&#45;&gt;Node2 -->
<g id="edge2_Node000001_Node000002" class="edge">
<title>Node1&#45;&gt;Node2</title>
<g id="a_edge2_Node000001_Node000002"><a xlink:title=" ">
<path fill="none" stroke="#63b8ff" d="M645.59,-194.86C612.59,-205.49 567.76,-219.93 537.79,-229.59"/>
<polygon fill="#63b8ff" stroke="#63b8ff" points="646.41,-198.27 654.85,-191.88 644.26,-191.61 646.41,-198.27"/>
</a>
</g>
</g>
<!-- Node5 -->
<g id="Node000005" class="node">
<title>Node5</title>
<g id="a_Node000005"><a xlink:href="group___u_a_r_t___private___functions.html#ga022c48cae777ec41cf3f673bd5834ac0" target="_top" xlink:title="Configures the UART peripheral.">
<polygon fill="white" stroke="#666666" points="550.36,-132 458.61,-132 458.61,-112 550.36,-112 550.36,-132"/>
<text xml:space="preserve" text-anchor="middle" x="504.48" y="-118.5" font-family="Helvetica,sans-Serif" font-size="10.00">UART_SetConfig</text>
</a>
</g>
</g>
<!-- Node1&#45;&gt;Node5 -->
<g id="edge8_Node000001_Node000005" class="edge">
<title>Node1&#45;&gt;Node5</title>
<g id="a_edge8_Node000001_Node000005"><a xlink:title=" ">
<path fill="none" stroke="#63b8ff" d="M645.59,-167.14C612.59,-156.51 567.76,-142.07 537.79,-132.41"/>
<polygon fill="#63b8ff" stroke="#63b8ff" points="644.26,-170.39 654.85,-170.12 646.41,-163.73 644.26,-170.39"/>
</a>
</g>
</g>
<!-- Node2&#45;&gt;Node2 -->
<g id="edge7_Node000002_Node000002" class="edge">
<title>Node2&#45;&gt;Node2</title>
<g id="a_edge7_Node000002_Node000002"><a xlink:title=" ">
<path fill="none" stroke="#63b8ff" d="M537.55,-261.11C533.61,-265.14 522.58,-268 504.48,-268 472.3,-268 462.5,-258.98 475.07,-250.34"/>
<polygon fill="#63b8ff" stroke="#63b8ff" points="540.91,-260.12 534.38,-251.77 534.28,-262.37 540.91,-260.12"/>
</a>
</g>
</g>
<!-- Node3 -->
<g id="Node000003" class="node">
<title>Node3</title>
<g id="a_Node000003"><a xlink:href="group___a_d_c___exported___functions___group2.html#gad9c0b5763ab75357407e22d310befc30" target="_top" xlink:title="Wait for regular group conversion to be completed.">
<polygon fill="white" stroke="#666666" points="386.98,-312 238.98,-312 238.98,-292 386.98,-292 386.98,-312"/>
<text xml:space="preserve" text-anchor="middle" x="312.98" y="-298.5" font-family="Helvetica,sans-Serif" font-size="10.00">HAL_ADC_PollForConversion</text>
</a>
</g>
</g>
<!-- Node2&#45;&gt;Node3 -->
<g id="edge3_Node000002_Node000003" class="edge">
<title>Node2&#45;&gt;Node3</title>
<g id="a_edge3_Node000002_Node000003"><a xlink:title=" ">
<path fill="none" stroke="#63b8ff" d="M466.81,-254.6C444.03,-263.4 414.03,-274.51 386.98,-283 377.36,-286.02 366.92,-288.94 357.03,-291.55"/>
<polygon fill="#63b8ff" stroke="#63b8ff" points="467.91,-257.93 475.96,-251.03 465.37,-251.4 467.91,-257.93"/>
</a>
</g>
</g>
<!-- Node4 -->
<g id="Node000004" class="node">
<title>Node4</title>
<g id="a_Node000004"><a xlink:href="group___a_d_c_ex___exported___functions___group1.html#gabb53dc2716c8250256368c4f60701dab" target="_top" xlink:title="Perform an ADC automatic self&#45;calibration Calibration prerequisite: ADC must be disabled (execute thi...">
<polygon fill="white" stroke="#666666" points="376.11,-256 249.86,-256 249.86,-224 376.11,-224 376.11,-256"/>
<text xml:space="preserve" text-anchor="start" x="257.86" y="-242.5" font-family="Helvetica,sans-Serif" font-size="10.00">HAL_ADCEx_Calibration</text>
<text xml:space="preserve" text-anchor="middle" x="312.98" y="-230.5" font-family="Helvetica,sans-Serif" font-size="10.00">_Start</text>
</a>
</g>
</g>
<!-- Node2&#45;&gt;Node4 -->
<g id="edge5_Node000002_Node000004" class="edge">
<title>Node2&#45;&gt;Node4</title>
<g id="a_edge5_Node000002_Node000004"><a xlink:title=" ">
<path fill="none" stroke="#63b8ff" d="M411.32,-240C399.55,-240 387.72,-240 376.57,-240"/>
<polygon fill="#63b8ff" stroke="#63b8ff" points="411.06,-243.5 421.06,-240 411.06,-236.5 411.06,-243.5"/>
</a>
</g>
</g>
<!-- Node3&#45;&gt;Node3 -->
<g id="edge4_Node000003_Node000003" class="edge">
<title>Node3&#45;&gt;Node3</title>
<g id="a_edge4_Node000003_Node000003"><a xlink:title=" ">
<path fill="none" stroke="#63b8ff" d="M343.91,-323.11C340.22,-327.14 329.91,-330 312.98,-330 282.89,-330 273.72,-320.98 285.48,-312.34"/>
<polygon fill="#63b8ff" stroke="#63b8ff" points="347.31,-322.26 340.95,-313.78 340.63,-324.37 347.31,-322.26"/>
</a>
</g>
</g>
<!-- Node4&#45;&gt;Node4 -->
<g id="edge6_Node000004_Node000004" class="edge">
<title>Node4&#45;&gt;Node4</title>
<g id="a_edge6_Node000004_Node000004"><a xlink:title=" ">
<path fill="none" stroke="#63b8ff" d="M341.83,-267.71C337.02,-271.48 327.41,-274 312.98,-274 286.61,-274 276.31,-265.58 282.08,-256.44"/>
<polygon fill="#63b8ff" stroke="#63b8ff" points="345.27,-268.4 343.62,-257.93 338.38,-267.14 345.27,-268.4"/>
</a>
</g>
</g>
<!-- Node5&#45;&gt;Node5 -->
<g id="edge21_Node000005_Node000005" class="edge">
<title>Node5&#45;&gt;Node5</title>
<g id="a_edge21_Node000005_Node000005"><a xlink:title=" ">
<path fill="none" stroke="#63b8ff" d="M537.55,-143.11C533.61,-147.14 522.58,-150 504.48,-150 472.3,-150 462.5,-140.98 475.07,-132.34"/>
<polygon fill="#63b8ff" stroke="#63b8ff" points="540.91,-142.12 534.38,-133.77 534.28,-144.37 540.91,-142.12"/>
</a>
</g>
</g>
<!-- Node6 -->
<g id="Node000006" class="node">
<title>Node6</title>
<g id="a_Node000006"><a xlink:href="group___u_a_r_t___exported___functions___group1.html#ga927245827265eff1f3580a0121efd424" target="_top" xlink:title="Initializes the half&#45;duplex mode according to the specified parameters in the UART_InitTypeDef and cr...">
<polygon fill="white" stroke="#666666" points="367.11,-188 258.86,-188 258.86,-168 367.11,-168 367.11,-188"/>
<text xml:space="preserve" text-anchor="middle" x="312.98" y="-174.5" font-family="Helvetica,sans-Serif" font-size="10.00">HAL_HalfDuplex_Init</text>
</a>
</g>
</g>
<!-- Node5&#45;&gt;Node6 -->
<g id="edge9_Node000005_Node000006" class="edge">
<title>Node5&#45;&gt;Node6</title>
<g id="a_edge9_Node000005_Node000006"><a xlink:title=" ">
<path fill="none" stroke="#63b8ff" d="M461.77,-135.84C439.63,-143.03 411.93,-151.8 386.98,-159 376.92,-161.91 366.01,-164.85 355.78,-167.53"/>
<polygon fill="#63b8ff" stroke="#63b8ff" points="462.61,-139.24 471.03,-132.81 460.44,-132.59 462.61,-139.24"/>
</a>
</g>
</g>
<!-- Node7 -->
<g id="Node000007" class="node">
<title>Node7</title>
<g id="a_Node000007"><a xlink:href="group___u_a_r_t___exported___functions___group1.html#ga27e4497270bd06434e3965e4b06f5516" target="_top" xlink:title="Initializes the LIN mode according to the specified parameters in the UART_InitTypeDef and create the...">
<polygon fill="white" stroke="#666666" points="350.61,-132 275.36,-132 275.36,-112 350.61,-112 350.61,-132"/>
<text xml:space="preserve" text-anchor="middle" x="312.98" y="-118.5" font-family="Helvetica,sans-Serif" font-size="10.00">HAL_LIN_Init</text>
</a>
</g>
</g>
<!-- Node5&#45;&gt;Node7 -->
<g id="edge11_Node000005_Node000007" class="edge">
<title>Node5&#45;&gt;Node7</title>
<g id="a_edge11_Node000005_Node000007"><a xlink:title=" ">
<path fill="none" stroke="#63b8ff" d="M447.43,-122C416.27,-122 378.37,-122 350.94,-122"/>
<polygon fill="#63b8ff" stroke="#63b8ff" points="447.06,-125.5 457.06,-122 447.06,-118.5 447.06,-125.5"/>
</a>
</g>
</g>
<!-- Node8 -->
<g id="Node000008" class="node">
<title>Node8</title>
<g id="a_Node000008"><a xlink:href="group___u_a_r_t___exported___functions___group1.html#gaae1b49f0cb62235141807d8cbc61bc4d" target="_top" xlink:title="Initializes the Multi&#45;Processor mode according to the specified parameters in the UART_InitTypeDef an...">
<polygon fill="white" stroke="#666666" points="375.36,-76 250.61,-76 250.61,-56 375.36,-56 375.36,-76"/>
<text xml:space="preserve" text-anchor="middle" x="312.98" y="-62.5" font-family="Helvetica,sans-Serif" font-size="10.00">HAL_MultiProcessor_Init</text>
</a>
</g>
</g>
<!-- Node5&#45;&gt;Node8 -->
<g id="edge13_Node000005_Node000008" class="edge">
<title>Node5&#45;&gt;Node8</title>
<g id="a_edge13_Node000005_Node000008"><a xlink:title=" ">
<path fill="none" stroke="#63b8ff" d="M457.45,-108.4C424.16,-98.56 379.84,-85.46 349.32,-76.44"/>
<polygon fill="#63b8ff" stroke="#63b8ff" points="456.25,-111.69 466.83,-111.17 458.23,-104.98 456.25,-111.69"/>
</a>
</g>
</g>
<!-- Node9 -->
<g id="Node000009" class="node">
<title>Node9</title>
<g id="a_Node000009"><a xlink:href="group___u_a_r_t___exported___functions___group1.html#gabe47045024787099b0bfa82bbe7b0b6a" target="_top" xlink:title="Initializes the UART mode according to the specified parameters in the UART_InitTypeDef and create th...">
<polygon fill="white" stroke="#666666" points="356.23,-20 269.73,-20 269.73,0 356.23,0 356.23,-20"/>
<text xml:space="preserve" text-anchor="middle" x="312.98" y="-6.5" font-family="Helvetica,sans-Serif" font-size="10.00">HAL_UART_Init</text>
</a>
</g>
</g>
<!-- Node5&#45;&gt;Node9 -->
<g id="edge15_Node000005_Node000009" class="edge">
<title>Node5&#45;&gt;Node9</title>
<g id="a_edge15_Node000005_Node000009"><a xlink:title=" ">
<path fill="none" stroke="#63b8ff" d="M478.91,-105.13C455.64,-89.41 419.52,-65.65 386.98,-47 370.22,-37.39 350.66,-27.55 336.02,-20.43"/>
<polygon fill="#63b8ff" stroke="#63b8ff" points="476.85,-107.96 487.09,-110.69 480.79,-102.17 476.85,-107.96"/>
</a>
</g>
</g>
<!-- Node6&#45;&gt;Node6 -->
<g id="edge10_Node000006_Node000006" class="edge">
<title>Node6&#45;&gt;Node6</title>
<g id="a_edge10_Node000006_Node000006"><a xlink:title=" ">
<path fill="none" stroke="#63b8ff" d="M343.91,-199.11C340.22,-203.14 329.91,-206 312.98,-206 282.89,-206 273.72,-196.98 285.48,-188.34"/>
<polygon fill="#63b8ff" stroke="#63b8ff" points="347.31,-198.26 340.95,-189.78 340.63,-200.37 347.31,-198.26"/>
</a>
</g>
</g>
<!-- Node7&#45;&gt;Node7 -->
<g id="edge12_Node000007_Node000007" class="edge">
<title>Node7&#45;&gt;Node7</title>
<g id="a_edge12_Node000007_Node000007"><a xlink:title=" ">
<path fill="none" stroke="#63b8ff" d="M343.91,-143.11C340.22,-147.14 329.91,-150 312.98,-150 282.89,-150 273.72,-140.98 285.48,-132.34"/>
<polygon fill="#63b8ff" stroke="#63b8ff" points="347.31,-142.26 340.95,-133.78 340.63,-144.37 347.31,-142.26"/>
</a>
</g>
</g>
<!-- Node8&#45;&gt;Node8 -->
<g id="edge14_Node000008_Node000008" class="edge">
<title>Node8&#45;&gt;Node8</title>
<g id="a_edge14_Node000008_Node000008"><a xlink:title=" ">
<path fill="none" stroke="#63b8ff" d="M343.91,-87.11C340.22,-91.14 329.91,-94 312.98,-94 282.89,-94 273.72,-84.98 285.48,-76.34"/>
<polygon fill="#63b8ff" stroke="#63b8ff" points="347.31,-86.26 340.95,-77.78 340.63,-88.37 347.31,-86.26"/>
</a>
</g>
</g>
<!-- Node9&#45;&gt;Node9 -->
<g id="edge16_Node000009_Node000009" class="edge">
<title>Node9&#45;&gt;Node9</title>
<g id="a_edge16_Node000009_Node000009"><a xlink:title=" ">
<path fill="none" stroke="#63b8ff" d="M343.91,-31.11C340.22,-35.14 329.91,-38 312.98,-38 282.89,-38 273.72,-28.98 285.48,-20.34"/>
<polygon fill="#63b8ff" stroke="#63b8ff" points="347.31,-30.26 340.95,-21.78 340.63,-32.37 347.31,-30.26"/>
</a>
</g>
</g>
<!-- Node10 -->
<g id="Node000010" class="node">
<title>Node10</title>
<g id="a_Node000010"><a xlink:href="main_8c.html#a62f4b77e20bccafe98a183771749c20c" target="_top" xlink:title="USART1 Initialization Function.">
<polygon fill="white" stroke="#666666" points="202.98,-20 76.73,-20 76.73,0 202.98,0 202.98,-20"/>
<text xml:space="preserve" text-anchor="middle" x="139.86" y="-6.5" font-family="Helvetica,sans-Serif" font-size="10.00">MX_USART1_UART_Init</text>
</a>
</g>
</g>
<!-- Node9&#45;&gt;Node10 -->
<g id="edge17_Node000009_Node000010" class="edge">
<title>Node9&#45;&gt;Node10</title>
<g id="a_edge17_Node000009_Node000010"><a xlink:title=" ">
<path fill="none" stroke="#63b8ff" d="M258.15,-10C240.77,-10 221.35,-10 203.39,-10"/>
<polygon fill="#63b8ff" stroke="#63b8ff" points="257.73,-13.5 267.73,-10 257.73,-6.5 257.73,-13.5"/>
</a>
</g>
</g>
<!-- Node10&#45;&gt;Node10 -->
<g id="edge20_Node000010_Node000010" class="edge">
<title>Node10&#45;&gt;Node10</title>
<g id="a_edge20_Node000010_Node000010"><a xlink:title=" ">
<path fill="none" stroke="#63b8ff" d="M160.65,-31.44C157.97,-35.3 151.04,-38 139.86,-38 119.41,-38 113.18,-28.98 121.17,-20.34"/>
<polygon fill="#63b8ff" stroke="#63b8ff" points="164.13,-31 158.83,-21.83 157.25,-32.3 164.13,-31"/>
</a>
</g>
</g>
<!-- Node11 -->
<g id="Node000011" class="node">
<title>Node11</title>
<g id="a_Node000011"><a xlink:href="main_8c.html#a840291bc02cba5474a4cb46a9b9566fe" target="_top" xlink:title="The application entry point.">
<polygon fill="white" stroke="#666666" points="40.73,-20 3.73,-20 3.73,0 40.73,0 40.73,-20"/>
<text xml:space="preserve" text-anchor="middle" x="22.23" y="-6.5" font-family="Helvetica,sans-Serif" font-size="10.00">main</text>
</a>
</g>
</g>
<!-- Node10&#45;&gt;Node11 -->
<g id="edge18_Node000010_Node000011" class="edge">
<title>Node10&#45;&gt;Node11</title>
<g id="a_edge18_Node000010_Node000011"><a xlink:title=" ">
<path fill="none" stroke="#63b8ff" d="M64.9,-10C56.07,-10 47.78,-10 40.96,-10"/>
<polygon fill="#63b8ff" stroke="#63b8ff" points="64.79,-13.5 74.79,-10 64.79,-6.5 64.79,-13.5"/>
</a>
</g>
</g>
<!-- Node11&#45;&gt;Node11 -->
<g id="edge19_Node000011_Node000011" class="edge">
<title>Node11&#45;&gt;Node11</title>
<g id="a_edge19_Node000011_Node000011"><a xlink:title=" ">
<path fill="none" stroke="#63b8ff" d="M43.02,-31.44C40.35,-35.3 33.42,-38 22.23,-38 1.79,-38 -4.44,-28.98 3.54,-20.34"/>
<polygon fill="#63b8ff" stroke="#63b8ff" points="46.5,-31 41.2,-21.83 39.62,-32.3 46.5,-31"/>
</a>
</g>
</g>
</g>
</svg>

<g id="navigator" transform="translate(0 0)" fill="#404254">
  <rect fill="#f2f5e9" fill-opacity="0.5" stroke="#606060" stroke-width=".5" x="0" y="0" width="60" height="60"/>
  <use id="zoomplus" xlink:href="#zoomPlus" x="17" y="9" data-zoom="in"/>
  <use id="zoomminus" xlink:href="#zoomMin" x="42" y="9" data-zoom="out"/>
  <use id="reset" xlink:href="#resetDef" x="30" y="36" data-reset="true"/>
  <use id="arrowup" xlink:href="#arrowUp" x="0" y="0" data-pan-x="0" data-pan-y="-1"/>
  <use id="arrowright" xlink:href="#arrowRight" x="0" y="0" data-pan-x="1" data-pan-y="0"/>
  <use id="arrowdown" xlink:href="#arrowDown" x="0" y="0" data-pan-x="0" data-pan-y="1"/>
  <use id="arrowleft" xlink:href="#arrowLeft" x="0" y="0" data-pan-x="-1" data-pan-y="0"/>
</g>
<svg viewBox="0 0 15 15" width="100%" height="30px" preserveAspectRatio="xMaxYMin meet">
 <g id="arrow_out" transform="scale(0.3 0.3)">
  <a xlink:href="group___r_c_c___exported___functions___group2_gabbd5f8933a5ee05e4b3384e33026aca1_icgraph_org.svg" target="_base">
   <rect id="button" ry="5" rx="5" y="6" x="6" height="38" width="38"
        fill="#f2f5e9" fill-opacity="0.5" stroke="#606060" stroke-width="1.0"/>
   <path id="arrow"
     d="M 11.500037,31.436501 C 11.940474,20.09759 22.043105,11.32322 32.158766,21.979434 L 37.068811,17.246167 C 37.068811,17.246167 37.088388,32 37.088388,32 L 22.160133,31.978069 C 22.160133,31.978069 26.997745,27.140456 26.997745,27.140456 C 18.528582,18.264221 13.291696,25.230495 11.500037,31.436501 z"
     style="fill:#404040;"/>
  </a>
 </g>
</svg>

<style type='text/css'>
<![CDATA[
[data-mouse-over-selected='false'] { opacity: 0.7; }
[data-mouse-over-selected='true']  { opacity: 1.0; }
]]>
</style>
</svg>
