<?xml version="1.0" encoding="UTF-8" standalone="no"?>
<!DOCTYPE svg PUBLIC "-//W3C//DTD SVG 1.1//EN"
 "http://www.w3.org/Graphics/SVG/1.1/DTD/svg11.dtd">
<!-- Generated by graphviz version 16.1.0 (20260904.0139)
 -->
<!-- Title: UART_SetConfig Pages: 1 -->
<svg width="438pt" height="102pt"
 viewBox="0.00 0.00 438.00 102.00" xmlns="http://www.w3.org/2000/svg" xmlns:xlink="http://www.w3.org/1999/xlink">
<g id="graph0" class="graph" transform="scale(1 1) rotate(0) translate(4 98)">
<title>UART_SetConfig</title>
<!-- Node1 -->
<g id="Node000001" class="node">
<title>Node1</title>
<g id="a_Node000001"><a xlink:title="Configures the UART peripheral.">
<polygon fill="#999999" stroke="#666666" points="91.75,-48 0,-48 0,-28 91.75,-28 91.75,-48"/>
<text xml:space="preserve" text-anchor="middle" x="45.88" y="-34.5" font-family="Helvetica,sans-Serif" font-size="10.00">UART_SetConfig</text>
</a>
</g>
</g>
<!-- Node1&#45;&gt;Node1 -->
<g id="edge8_Node000001_Node000001" class="edge">
<title>Node1&#45;&gt;Node1</title>
<g id="a_edge8_Node000001_Node000001"><a xlink:title=" ">
<path fill="none" stroke="#63b8ff" d="M22.12,-48.34C11.97,-56.98 19.89,-66 45.88,-66 60.09,-66 68.89,-63.3 72.3,-59.44"/>
<polygon fill="#63b8ff" stroke="#63b8ff" points="75.72,-58.72 69.98,-49.81 68.92,-60.35 75.72,-58.72"/>
</a>
</g>
</g>
<!-- Node2 -->
<g id="Node000002" class="node">
<title>Node2</title>
<g id="a_Node000002"><a xlink:href="group___r_c_c___exported___functions___group2.html#gab3042d8ac5703ac696cabf0ee461c599" target="_top" xlink:title="Returns the PCLK1 frequency.">
<polygon fill="white" stroke="#666666" points="263,-76 127.75,-76 127.75,-56 263,-56 263,-76"/>
<text xml:space="preserve" text-anchor="middle" x="195.38" y="-62.5" font-family="Helvetica,sans-Serif" font-size="10.00">HAL_RCC_GetPCLK1Freq</text>
</a>
</g>
</g>
<!-- Node1&#45;&gt;Node2 -->
<g id="edge1_Node000001_Node000002" class="edge">
<title>Node1&#45;&gt;Node2</title>
<g id="a_edge1_Node000001_Node000002"><a xlink:title=" ">
<path fill="none" stroke="#63b8ff" d="M91.93,-46.55C103.35,-48.72 115.85,-51.09 128.08,-53.41"/>
<polygon fill="#63b8ff" stroke="#63b8ff" points="127.22,-56.82 137.7,-55.24 128.53,-49.94 127.22,-56.82"/>
</a>
</g>
</g>
<!-- Node4 -->
<g id="Node000004" class="node">
<title>Node4</title>
<g id="a_Node000004"><a xlink:href="group___r_c_c___exported___functions___group2.html#gabbd5f8933a5ee05e4b3384e33026aca1" target="_top" xlink:title="Returns the PCLK2 frequency.">
<polygon fill="white" stroke="#666666" points="263,-20 127.75,-20 127.75,0 263,0 263,-20"/>
<text xml:space="preserve" text-anchor="middle" x="195.38" y="-6.5" font-family="Helvetica,sans-Serif" font-size="10.00">HAL_RCC_GetPCLK2Freq</text>
</a>
</g>
</g>
<!-- Node1&#45;&gt;Node4 -->
<g id="edge5_Node000001_Node000004" class="edge">
<title>Node1&#45;&gt;Node4</title>
<g id="a_edge5_Node000001_Node000004"><a xlink:title=" ">
<path fill="none" stroke="#63b8ff" d="M91.93,-29.45C103.35,-27.28 115.85,-24.91 128.08,-22.59"/>
<polygon fill="#63b8ff" stroke="#63b8ff" points="128.53,-26.06 137.7,-20.76 127.22,-19.18 128.53,-26.06"/>
</a>
</g>
</g>
<!-- Node2&#45;&gt;Node2 -->
<g id="edge4_Node000002_Node000002" class="edge">
<title>Node2&#45;&gt;Node2</title>
<g id="a_edge4_Node000002_Node000002"><a xlink:title=" ">
<path fill="none" stroke="#63b8ff" d="M171.62,-76.34C161.47,-84.98 169.39,-94 195.38,-94 209.59,-94 218.39,-91.3 221.8,-87.44"/>
<polygon fill="#63b8ff" stroke="#63b8ff" points="225.22,-86.72 219.48,-77.81 218.42,-88.35 225.22,-86.72"/>
</a>
</g>
</g>
<!-- Node3 -->
<g id="Node000003" class="node">
<title>Node3</title>
<g id="a_Node000003"><a xlink:href="group___r_c_c___exported___functions___group2.html#ga38d6c5c7a5d8758849912c9aa0a2156d" target="_top" xlink:title="Returns the HCLK frequency.">
<polygon fill="white" stroke="#666666" points="429.75,-48 299,-48 299,-28 429.75,-28 429.75,-48"/>
<text xml:space="preserve" text-anchor="middle" x="364.38" y="-34.5" font-family="Helvetica,sans-Serif" font-size="10.00">HAL_RCC_GetHCLKFreq</text>
</a>
</g>
</g>
<!-- Node2&#45;&gt;Node3 -->
<g id="edge2_Node000002_Node000003" class="edge">
<title>Node2&#45;&gt;Node3</title>
<g id="a_edge2_Node000002_Node000003"><a xlink:title=" ">
<path fill="none" stroke="#63b8ff" d="M258.56,-55.57C268.71,-53.87 279.3,-52.1 289.7,-50.35"/>
<polygon fill="#63b8ff" stroke="#63b8ff" points="290.08,-53.84 299.37,-48.73 288.93,-46.93 290.08,-53.84"/>
</a>
</g>
</g>
<!-- Node3&#45;&gt;Node3 -->
<g id="edge3_Node000003_Node000003" class="edge">
<title>Node3&#45;&gt;Node3</title>
<g id="a_edge3_Node000003_Node000003"><a xlink:title=" ">
<path fill="none" stroke="#63b8ff" d="M337.52,-48.34C326.05,-56.98 335,-66 364.38,-66 380.44,-66 390.4,-63.3 394.24,-59.44"/>
<polygon fill="#63b8ff" stroke="#63b8ff" points="397.62,-58.53 391.62,-49.8 390.87,-60.37 397.62,-58.53"/>
</a>
</g>
</g>
<!-- Node4&#45;&gt;Node3 -->
<g id="edge6_Node000004_Node000003" class="edge">
<title>Node4&#45;&gt;Node3</title>
<g id="a_edge6_Node000004_Node000003"><a xlink:title=" ">
<path fill="none" stroke="#63b8ff" d="M258.56,-20.43C268.71,-22.13 279.3,-23.9 289.7,-25.65"/>
<polygon fill="#63b8ff" stroke="#63b8ff" points="288.93,-29.07 299.37,-27.27 290.08,-22.16 288.93,-29.07"/>
</a>
</g>
</g>
<!-- Node4&#45;&gt;Node4 -->
<g id="edge7_Node000004_Node000004" class="edge">
<title>Node4&#45;&gt;Node4</title>
<g id="a_edge7_Node000004_Node000004"><a xlink:title=" ">
<path fill="none" stroke="#63b8ff" d="M171.62,-20.34C161.47,-28.98 169.39,-38 195.38,-38 209.59,-38 218.39,-35.3 221.8,-31.44"/>
<polygon fill="#63b8ff" stroke="#63b8ff" points="225.22,-30.72 219.48,-21.81 218.42,-32.35 225.22,-30.72"/>
</a>
</g>
</g>
</g>
</svg>
