<?xml version="1.0" encoding="UTF-8" standalone="no"?>
<!DOCTYPE svg PUBLIC "-//W3C//DTD SVG 1.1//EN"
 "http://www.w3.org/Graphics/SVG/1.1/DTD/svg11.dtd">
<!-- Generated by graphviz version 16.1.0 (20260904.0139)
 -->
<!-- Title: TIM_TI4_SetConfig Pages: 1 -->
<svg width="289pt" height="46pt"
 viewBox="0.00 0.00 289.00 46.00" xmlns="http://www.w3.org/2000/svg" xmlns:xlink="http://www.w3.org/1999/xlink">
<g id="graph0" class="graph" transform="scale(1 1) rotate(0) translate(4 42)">
<title>TIM_TI4_SetConfig</title>
<!-- Node1 -->
<g id="Node000001" class="node">
<title>Node1</title>
<g id="a_Node000001"><a xlink:title="Configure the TI4 as Input.">
<polygon fill="#999999" stroke="#666666" points="281,-20 179.5,-20 179.5,0 281,0 281,-20"/>
<text xml:space="preserve" text-anchor="middle" x="230.25" y="-6.5" font-family="Helvetica,sans-Serif" font-size="10.00">TIM_TI4_SetConfig</text>
</a>
</g>
</g>
<!-- Node1&#45;&gt;Node1 -->
<g id="edge3_Node000001_Node000001" class="edge">
<title>Node1&#45;&gt;Node1</title>
<g id="a_edge3_Node000001_Node000001"><a xlink:title=" ">
<path fill="none" stroke="#63b8ff" d="M258.26,-31.44C254.66,-35.3 245.32,-38 230.25,-38 202.7,-38 194.3,-28.98 205.07,-20.34"/>
<polygon fill="#63b8ff" stroke="#63b8ff" points="261.67,-30.63 255.81,-21.81 254.89,-32.36 261.67,-30.63"/>
</a>
</g>
</g>
<!-- Node2 -->
<g id="Node000002" class="node">
<title>Node2</title>
<g id="a_Node000002"><a xlink:href="group___t_i_m___exported___functions___group8.html#ga031c508e41997d53c059665ebd3638a3" target="_top" xlink:title="Initializes the TIM Input Capture Channels according to the specified parameters in the TIM_IC_InitTy...">
<polygon fill="white" stroke="#666666" points="143.5,-20 0,-20 0,0 143.5,0 143.5,-20"/>
<text xml:space="preserve" text-anchor="middle" x="71.75" y="-6.5" font-family="Helvetica,sans-Serif" font-size="10.00">HAL_TIM_IC_ConfigChannel</text>
</a>
</g>
</g>
<!-- Node1&#45;&gt;Node2 -->
<g id="edge1_Node000001_Node000002" class="edge">
<title>Node1&#45;&gt;Node2</title>
<g id="a_edge1_Node000001_Node000002"><a xlink:title=" ">
<path fill="none" stroke="#63b8ff" d="M167.95,-10C160.06,-10 151.93,-10 143.9,-10"/>
<polygon fill="#63b8ff" stroke="#63b8ff" points="167.79,-13.5 177.79,-10 167.79,-6.5 167.79,-13.5"/>
</a>
</g>
</g>
<!-- Node2&#45;&gt;Node2 -->
<g id="edge2_Node000002_Node000002" class="edge">
<title>Node2&#45;&gt;Node2</title>
<g id="a_edge2_Node000002_Node000002"><a xlink:title=" ">
<path fill="none" stroke="#63b8ff" d="M99.76,-31.44C96.16,-35.3 86.82,-38 71.75,-38 44.2,-38 35.8,-28.98 46.57,-20.34"/>
<polygon fill="#63b8ff" stroke="#63b8ff" points="103.17,-30.63 97.31,-21.81 96.39,-32.36 103.17,-30.63"/>
</a>
</g>
</g>
</g>
</svg>
