<?xml version="1.0" encoding="UTF-8" standalone="no"?>
<!DOCTYPE svg PUBLIC "-//W3C//DTD SVG 1.1//EN"
 "http://www.w3.org/Graphics/SVG/1.1/DTD/svg11.dtd">
<!-- Generated by graphviz version 16.1.0 (20260904.0139)
 -->
<!-- Title: USB_ActivateEndpoint Pages: 1 -->
<!--zoomable 130 -->

<svg id="main" version="1.1" xmlns="http://www.w3.org/2000/svg" xmlns:xlink="http://www.w3.org/1999/xlink" xml:space="preserve">

<style type="text/css"><![CDATA[
.node, .edge {opacity: 0.7;}
.node.selected, .edge.selected {opacity: 1;}
.edge:hover path { stroke: red; }
.edge:hover polygon { stroke: red; fill: red; }
]]></style>

<defs>
  <circle id="rim" cx="0" cy="0" r="7"/>
  <circle id="rim2" cx="0" cy="0" r="3.5"/>
  <g id="zoomPlus">
    <use xlink:href="#rim" fill="#404040"><set attributeName="fill" to="#808080" begin="zoomplus.mouseover" end="zoomplus.mouseout"/></use>
    <path d="M-4,0h8M0,-4v8" fill="none" stroke="white" stroke-width="1.5" pointer-events="none"/>
  </g>
  <g id="zoomMin">
    <use xlink:href="#rim" fill="#404040"><set attributeName="fill" to="#808080" begin="zoomminus.mouseover" end="zoomminus.mouseout"/></use>
    <path d="M-4,0h8" fill="none" stroke="white" stroke-width="1.5" pointer-events="none"/>
  </g>
  <g id="arrowUp" transform="translate(30 24)">
    <use xlink:href="#rim"/>
    <path pointer-events="none" fill="none" stroke="white" stroke-width="1.5" d="M0,-3.0v7 M-2.5,-0.5L0,-3.0L2.5,-0.5"/>
  </g>
  <g id="arrowRight" transform="rotate(90) translate(36 -43)">
    <use xlink:href="#rim"/>
    <path pointer-events="none" fill="none" stroke="white" stroke-width="1.5" d="M0,-3.0v7 M-2.5,-0.5L0,-3.0L2.5,-0.5"/>
  </g>
  <g id="arrowDown" transform="rotate(180) translate(-30 -48)">
    <use xlink:href="#rim"/>
    <path pointer-events="none" fill="none" stroke="white" stroke-width="1.5" d="M0,-3.0v7 M-2.5,-0.5L0,-3.0L2.5,-0.5"/>
  </g>
  <g id="arrowLeft" transform="rotate(270) translate(-36 17)">
    <use xlink:href="#rim"/>
    <path pointer-events="none" fill="none" stroke="white" stroke-width="1.5" d="M0,-3.0v7 M-2.5,-0.5L0,-3.0L2.5,-0.5"/>
  </g>
  <g id="resetDef">
    <use xlink:href="#rim2" fill="#404040"><set attributeName="fill" to="#808080" begin="reset.mouseover" end="reset.mouseout"/></use>
  </g>
</defs>
<script type="application/ecmascript" xlink:href="svg.min.js"/>
<svg id="graph" class="graph" data-view-width="705" data-view-height="130" data-section-id="dynsection-2">
<g id="viewport">
<title>USB_ActivateEndpoint</title>
<!-- Node1 -->
<g id="Node000001" class="node">
<title>Node1</title>
<g id="a_Node000001"><a xlink:title="Activate and configure an endpoint.">
<polygon fill="#999999" stroke="#666666" points="696.5,-48 580,-48 580,-28 696.5,-28 696.5,-48"/>
<text xml:space="preserve" text-anchor="middle" x="638.25" y="-34.5" font-family="Helvetica,sans-Serif" font-size="10.00">USB_ActivateEndpoint</text>
</a>
</g>
</g>
<!-- Node1&#45;&gt;Node1 -->
<g id="edge10_Node000001_Node000001" class="edge">
<title>Node1&#45;&gt;Node1</title>
<g id="a_edge10_Node000001_Node000001"><a xlink:title=" ">
<path fill="none" stroke="#63b8ff" d="M664.61,-59.44C661.21,-63.3 652.43,-66 638.25,-66 612.33,-66 604.43,-56.98 614.56,-48.34"/>
<polygon fill="#63b8ff" stroke="#63b8ff" points="668.03,-58.72 662.3,-49.81 661.23,-60.35 668.03,-58.72"/>
</a>
</g>
</g>
<!-- Node2 -->
<g id="Node000002" class="node">
<title>Node2</title>
<g id="a_Node000002"><a xlink:href="group___p_c_d___exported___functions___group3.html#gab377a41f91fb7c12c12886d94bd765f2" target="_top" xlink:title="Open and configure an endpoint.">
<polygon fill="white" stroke="#666666" points="544,-76 434.25,-76 434.25,-56 544,-56 544,-76"/>
<text xml:space="preserve" text-anchor="middle" x="489.12" y="-62.5" font-family="Helvetica,sans-Serif" font-size="10.00">HAL_PCD_EP_Open</text>
</a>
</g>
</g>
<!-- Node1&#45;&gt;Node2 -->
<g id="edge1_Node000001_Node000002" class="edge">
<title>Node1&#45;&gt;Node2</title>
<g id="a_edge1_Node000001_Node000002"><a xlink:title=" ">
<path fill="none" stroke="#63b8ff" d="M571.24,-50.56C562.29,-52.27 553.18,-54 544.46,-55.66"/>
<polygon fill="#63b8ff" stroke="#63b8ff" points="571.81,-54.02 580.98,-48.71 570.5,-47.14 571.81,-54.02"/>
</a>
</g>
</g>
<!-- Node7 -->
<g id="Node000007" class="node">
<title>Node7</title>
<g id="a_Node000007"><a xlink:href="group___u_s_b___l_l___exported___functions.html#gab28a0d9e547fc41cabf28692482eb1f3" target="_top" xlink:title=" ">
<polygon fill="white" stroke="#666666" points="540.62,-20 437.62,-20 437.62,0 540.62,0 540.62,-20"/>
<text xml:space="preserve" text-anchor="middle" x="489.12" y="-6.5" font-family="Helvetica,sans-Serif" font-size="10.00">USB_SetDevSpeed</text>
</a>
</g>
</g>
<!-- Node1&#45;&gt;Node7 -->
<g id="edge11_Node000001_Node000007" class="edge">
<title>Node1&#45;&gt;Node7</title>
<g id="a_edge11_Node000001_Node000007"><a xlink:title=" ">
<path fill="none" stroke="#63b8ff" d="M571.18,-25.43C561.07,-23.5 550.77,-21.54 541.06,-19.69"/>
<polygon fill="#63b8ff" stroke="#63b8ff" points="570.5,-28.86 580.98,-27.29 571.81,-21.98 570.5,-28.86"/>
</a>
</g>
</g>
<!-- Node2&#45;&gt;Node2 -->
<g id="edge2_Node000002_Node000002" class="edge">
<title>Node2&#45;&gt;Node2</title>
<g id="a_edge2_Node000002_Node000002"><a xlink:title=" ">
<path fill="none" stroke="#63b8ff" d="M514.22,-87.44C510.99,-91.3 502.62,-94 489.12,-94 464.44,-94 456.92,-84.98 466.56,-76.34"/>
<polygon fill="#63b8ff" stroke="#63b8ff" points="517.66,-86.78 512.02,-77.81 510.84,-88.34 517.66,-86.78"/>
</a>
</g>
</g>
<!-- Node3 -->
<g id="Node000003" class="node">
<title>Node3</title>
<g id="a_Node000003"><a xlink:href="group___u_s_b_d___c_o_r_e___exported___functions_prototype.html#gad96254d74d95496ffb5f6f2248585cb0" target="_top" xlink:title="Opens an endpoint of the low level driver.">
<polygon fill="white" stroke="#666666" points="398.25,-76 296,-76 296,-56 398.25,-56 398.25,-76"/>
<text xml:space="preserve" text-anchor="middle" x="347.12" y="-62.5" font-family="Helvetica,sans-Serif" font-size="10.00">USBD_LL_OpenEP</text>
</a>
</g>
</g>
<!-- Node2&#45;&gt;Node3 -->
<g id="edge3_Node000002_Node000003" class="edge">
<title>Node2&#45;&gt;Node3</title>
<g id="a_edge3_Node000002_Node000003"><a xlink:title=" ">
<path fill="none" stroke="#63b8ff" d="M422.61,-66C414.49,-66 406.28,-66 398.44,-66"/>
<polygon fill="#63b8ff" stroke="#63b8ff" points="422.48,-69.5 432.48,-66 422.48,-62.5 422.48,-69.5"/>
</a>
</g>
</g>
<!-- Node3&#45;&gt;Node3 -->
<g id="edge6_Node000003_Node000003" class="edge">
<title>Node3&#45;&gt;Node3</title>
<g id="a_edge6_Node000003_Node000003"><a xlink:title=" ">
<path fill="none" stroke="#63b8ff" d="M370.63,-87.44C367.6,-91.3 359.77,-94 347.12,-94 324.01,-94 316.96,-84.98 325.99,-76.34"/>
<polygon fill="#63b8ff" stroke="#63b8ff" points="374.09,-86.87 368.57,-77.82 367.24,-88.33 374.09,-86.87"/>
</a>
</g>
</g>
<!-- Node4 -->
<g id="Node000004" class="node">
<title>Node4</title>
<g id="a_Node000004"><a xlink:href="group___u_s_b_d___c_d_c___private___function_prototypes.html#gaf03e6f1387bf387afaf48de8bfbb8d08" target="_top" xlink:title="USBD_CDC_Init Initialize the CDC interface.">
<polygon fill="white" stroke="#666666" points="259.62,-104 168.62,-104 168.62,-84 259.62,-84 259.62,-104"/>
<text xml:space="preserve" text-anchor="middle" x="214.12" y="-90.5" font-family="Helvetica,sans-Serif" font-size="10.00">USBD_CDC_Init</text>
</a>
</g>
</g>
<!-- Node3&#45;&gt;Node4 -->
<g id="edge4_Node000003_Node000004" class="edge">
<title>Node3&#45;&gt;Node4</title>
<g id="a_edge4_Node000003_Node000004"><a xlink:title=" ">
<path fill="none" stroke="#63b8ff" d="M286.29,-78.79C277.46,-80.68 268.5,-82.59 260.05,-84.4"/>
<polygon fill="#63b8ff" stroke="#63b8ff" points="286.82,-82.26 295.87,-76.74 285.35,-75.41 286.82,-82.26"/>
</a>
</g>
</g>
<!-- Node5 -->
<g id="Node000005" class="node">
<title>Node5</title>
<g id="a_Node000005"><a xlink:href="group___u_s_b_d___c_o_r_e___private___functions.html#ga9cd02ae070a18ea3395346c56639412b" target="_top" xlink:title="USBD_LL_Reset Handle Reset event.">
<polygon fill="white" stroke="#666666" points="260,-48 168.25,-48 168.25,-28 260,-28 260,-48"/>
<text xml:space="preserve" text-anchor="middle" x="214.12" y="-34.5" font-family="Helvetica,sans-Serif" font-size="10.00">USBD_LL_Reset</text>
</a>
</g>
</g>
<!-- Node3&#45;&gt;Node5 -->
<g id="edge7_Node000003_Node000005" class="edge">
<title>Node3&#45;&gt;Node5</title>
<g id="a_edge7_Node000003_Node000005"><a xlink:title=" ">
<path fill="none" stroke="#63b8ff" d="M286.13,-53.18C277.51,-51.33 268.75,-49.46 260.48,-47.69"/>
<polygon fill="#63b8ff" stroke="#63b8ff" points="285.35,-56.59 295.87,-55.26 286.82,-49.74 285.35,-56.59"/>
</a>
</g>
</g>
<!-- Node4&#45;&gt;Node4 -->
<g id="edge5_Node000004_Node000004" class="edge">
<title>Node4&#45;&gt;Node4</title>
<g id="a_edge5_Node000004_Node000004"><a xlink:title=" ">
<path fill="none" stroke="#63b8ff" d="M237.63,-115.44C234.6,-119.3 226.77,-122 214.12,-122 191.01,-122 183.96,-112.98 192.99,-104.34"/>
<polygon fill="#63b8ff" stroke="#63b8ff" points="241.09,-114.87 235.57,-105.82 234.24,-116.33 241.09,-114.87"/>
</a>
</g>
</g>
<!-- Node5&#45;&gt;Node5 -->
<g id="edge9_Node000005_Node000005" class="edge">
<title>Node5&#45;&gt;Node5</title>
<g id="a_edge9_Node000005_Node000005"><a xlink:title=" ">
<path fill="none" stroke="#63b8ff" d="M237.63,-59.44C234.6,-63.3 226.77,-66 214.12,-66 191.01,-66 183.96,-56.98 192.99,-48.34"/>
<polygon fill="#63b8ff" stroke="#63b8ff" points="241.09,-58.87 235.57,-49.82 234.24,-60.33 241.09,-58.87"/>
</a>
</g>
</g>
<!-- Node6 -->
<g id="Node000006" class="node">
<title>Node6</title>
<g id="a_Node000006"><a xlink:href="usbd__conf_8c.html#af4fbef977092aa525c6b1668ffbec77b" target="_top" xlink:title="Reset callback.">
<polygon fill="white" stroke="#666666" points="132.25,-48 0,-48 0,-28 132.25,-28 132.25,-48"/>
<text xml:space="preserve" text-anchor="middle" x="66.12" y="-34.5" font-family="Helvetica,sans-Serif" font-size="10.00">HAL_PCD_ResetCallback</text>
</a>
</g>
</g>
<!-- Node5&#45;&gt;Node6 -->
<g id="edge8_Node000005_Node000006" class="edge">
<title>Node5&#45;&gt;Node6</title>
<g id="a_edge8_Node000005_Node000006"><a xlink:title=" ">
<path fill="none" stroke="#63b8ff" d="M156.79,-38C148.88,-38 140.7,-38 132.64,-38"/>
<polygon fill="#63b8ff" stroke="#63b8ff" points="156.62,-41.5 166.62,-38 156.62,-34.5 156.62,-41.5"/>
</a>
</g>
</g>
<!-- Node7&#45;&gt;Node7 -->
<g id="edge12_Node000007_Node000007" class="edge">
<title>Node7&#45;&gt;Node7</title>
<g id="a_edge12_Node000007_Node000007"><a xlink:title=" ">
<path fill="none" stroke="#63b8ff" d="M514.22,-31.44C510.99,-35.3 502.62,-38 489.12,-38 464.44,-38 456.92,-28.98 466.56,-20.34"/>
<polygon fill="#63b8ff" stroke="#63b8ff" points="517.66,-30.78 512.02,-21.81 510.84,-32.34 517.66,-30.78"/>
</a>
</g>
</g>
</g>
</svg>

<g id="navigator" transform="translate(0 0)" fill="#404254">
  <rect fill="#f2f5e9" fill-opacity="0.5" stroke="#606060" stroke-width=".5" x="0" y="0" width="60" height="60"/>
  <use id="zoomplus" xlink:href="#zoomPlus" x="17" y="9" data-zoom="in"/>
  <use id="zoomminus" xlink:href="#zoomMin" x="42" y="9" data-zoom="out"/>
  <use id="reset" xlink:href="#resetDef" x="30" y="36" data-reset="true"/>
  <use id="arrowup" xlink:href="#arrowUp" x="0" y="0" data-pan-x="0" data-pan-y="-1"/>
  <use id="arrowright" xlink:href="#arrowRight" x="0" y="0" data-pan-x="1" data-pan-y="0"/>
  <use id="arrowdown" xlink:href="#arrowDown" x="0" y="0" data-pan-x="0" data-pan-y="1"/>
  <use id="arrowleft" xlink:href="#arrowLeft" x="0" y="0" data-pan-x="-1" data-pan-y="0"/>
</g>
<svg viewBox="0 0 15 15" width="100%" height="30px" preserveAspectRatio="xMaxYMin meet">
 <g id="arrow_out" transform="scale(0.3 0.3)">
  <a xlink:href="group___u_s_b___l_l___exported___functions_ga33c55565004a8438f42df7b8a698bae3_icgraph_org.svg" target="_base">
   <rect id="button" ry="5" rx="5" y="6" x="6" height="38" width="38"
        fill="#f2f5e9" fill-opacity="0.5" stroke="#606060" stroke-width="1.0"/>
   <path id="arrow"
     d="M 11.500037,31.436501 C 11.940474,20.09759 22.043105,11.32322 32.158766,21.979434 L 37.068811,17.246167 C 37.068811,17.246167 37.088388,32 37.088388,32 L 22.160133,31.978069 C 22.160133,31.978069 26.997745,27.140456 26.997745,27.140456 C 18.528582,18.264221 13.291696,25.230495 11.500037,31.436501 z"
     style="fill:#404040;"/>
  </a>
 </g>
</svg>

<style type='text/css'>
<![CDATA[
[data-mouse-over-selected='false'] { opacity: 0.7; }
[data-mouse-over-selected='true']  { opacity: 1.0; }
]]>
</style>
</svg>
