<?xml version="1.0" encoding="UTF-8" standalone="no"?>
<!DOCTYPE svg PUBLIC "-//W3C//DTD SVG 1.1//EN"
 "http://www.w3.org/Graphics/SVG/1.1/DTD/svg11.dtd">
<!-- Generated by graphviz version 16.1.0 (20260904.0139)
 -->
<!-- Title: DebugESP01_To_USB Pages: 1 -->
<!--zoomable 130 -->

<svg id="main" version="1.1" xmlns="http://www.w3.org/2000/svg" xmlns:xlink="http://www.w3.org/1999/xlink" xml:space="preserve">

<style type="text/css"><![CDATA[
.node, .edge {opacity: 0.7;}
.node.selected, .edge.selected {opacity: 1;}
.edge:hover path { stroke: red; }
.edge:hover polygon { stroke: red; fill: red; }
]]></style>

<defs>
  <circle id="rim" cx="0" cy="0" r="7"/>
  <circle id="rim2" cx="0" cy="0" r="3.5"/>
  <g id="zoomPlus">
    <use xlink:href="#rim" fill="#404040"><set attributeName="fill" to="#808080" begin="zoomplus.mouseover" end="zoomplus.mouseout"/></use>
    <path d="M-4,0h8M0,-4v8" fill="none" stroke="white" stroke-width="1.5" pointer-events="none"/>
  </g>
  <g id="zoomMin">
    <use xlink:href="#rim" fill="#404040"><set attributeName="fill" to="#808080" begin="zoomminus.mouseover" end="zoomminus.mouseout"/></use>
    <path d="M-4,0h8" fill="none" stroke="white" stroke-width="1.5" pointer-events="none"/>
  </g>
  <g id="arrowUp" transform="translate(30 24)">
    <use xlink:href="#rim"/>
    <path pointer-events="none" fill="none" stroke="white" stroke-width="1.5" d="M0,-3.0v7 M-2.5,-0.5L0,-3.0L2.5,-0.5"/>
  </g>
  <g id="arrowRight" transform="rotate(90) translate(36 -43)">
    <use xlink:href="#rim"/>
    <path pointer-events="none" fill="none" stroke="white" stroke-width="1.5" d="M0,-3.0v7 M-2.5,-0.5L0,-3.0L2.5,-0.5"/>
  </g>
  <g id="arrowDown" transform="rotate(180) translate(-30 -48)">
    <use xlink:href="#rim"/>
    <path pointer-events="none" fill="none" stroke="white" stroke-width="1.5" d="M0,-3.0v7 M-2.5,-0.5L0,-3.0L2.5,-0.5"/>
  </g>
  <g id="arrowLeft" transform="rotate(270) translate(-36 17)">
    <use xlink:href="#rim"/>
    <path pointer-events="none" fill="none" stroke="white" stroke-width="1.5" d="M0,-3.0v7 M-2.5,-0.5L0,-3.0L2.5,-0.5"/>
  </g>
  <g id="resetDef">
    <use xlink:href="#rim2" fill="#404040"><set attributeName="fill" to="#808080" begin="reset.mouseover" end="reset.mouseout"/></use>
  </g>
</defs>
<script type="application/ecmascript" xlink:href="svg.min.js"/>
<svg id="graph" class="graph" data-view-width="998" data-view-height="130" data-section-id="dynsection-10">
<g id="viewport">
<title>DebugESP01_To_USB</title>
<!-- Node1 -->
<g id="Node000001" class="node">
<title>Node1</title>
<g id="a_Node000001"><a xlink:title=" ">
<polygon fill="#999999" stroke="#666666" points="117.25,-76 0,-76 0,-56 117.25,-56 117.25,-76"/>
<text xml:space="preserve" text-anchor="middle" x="58.62" y="-62.5" font-family="Helvetica,sans-Serif" font-size="10.00">DebugESP01_To_USB</text>
</a>
</g>
</g>
<!-- Node1&#45;&gt;Node1 -->
<g id="edge17_Node000001_Node000001" class="edge">
<title>Node1&#45;&gt;Node1</title>
<g id="a_edge17_Node000001_Node000001"><a xlink:title=" ">
<path fill="none" stroke="#63b8ff" d="M35.65,-76.34C25.83,-84.98 33.49,-94 58.62,-94 72.37,-94 80.89,-91.3 84.19,-87.44"/>
<polygon fill="#63b8ff" stroke="#63b8ff" points="87.62,-86.76 81.95,-77.81 80.8,-88.35 87.62,-86.76"/>
</a>
</g>
</g>
<!-- Node2 -->
<g id="Node000002" class="node">
<title>Node2</title>
<g id="a_Node000002"><a xlink:href="group___u_s_b_d___c_d_c___i_f.html#ga5137d6201dbdef2bf351c5b4941c24f4" target="_top" xlink:title="CDC_Transmit_FS Data to send over USB IN endpoint are sent over CDC interface through this function.">
<polygon fill="white" stroke="#666666" points="253.25,-76 153.25,-76 153.25,-56 253.25,-56 253.25,-76"/>
<text xml:space="preserve" text-anchor="middle" x="203.25" y="-62.5" font-family="Helvetica,sans-Serif" font-size="10.00">CDC_Transmit_FS</text>
</a>
</g>
</g>
<!-- Node1&#45;&gt;Node2 -->
<g id="edge1_Node000001_Node000002" class="edge">
<title>Node1&#45;&gt;Node2</title>
<g id="a_edge1_Node000001_Node000002"><a xlink:title=" ">
<path fill="none" stroke="#63b8ff" d="M117.64,-66C125.51,-66 133.61,-66 141.53,-66"/>
<polygon fill="#63b8ff" stroke="#63b8ff" points="141.45,-69.5 151.45,-66 141.45,-62.5 141.45,-69.5"/>
</a>
</g>
</g>
<!-- Node2&#45;&gt;Node2 -->
<g id="edge2_Node000002_Node000002" class="edge">
<title>Node2&#45;&gt;Node2</title>
<g id="a_edge2_Node000002_Node000002"><a xlink:title=" ">
<path fill="none" stroke="#63b8ff" d="M180.27,-76.34C170.45,-84.98 178.11,-94 203.25,-94 217,-94 225.52,-91.3 228.81,-87.44"/>
<polygon fill="#63b8ff" stroke="#63b8ff" points="232.25,-86.76 226.57,-77.81 225.43,-88.35 232.25,-86.76"/>
</a>
</g>
</g>
<!-- Node3 -->
<g id="Node000003" class="node">
<title>Node3</title>
<g id="a_Node000003"><a xlink:href="group___u_s_b_d___c_d_c___private___functions.html#gaae40b75b0ccc21281f4aa1e2fbdc0d4f" target="_top" xlink:title="USBD_CDC_SetTxBuffer.">
<polygon fill="white" stroke="#666666" points="427.12,-104 297.88,-104 297.88,-84 427.12,-84 427.12,-104"/>
<text xml:space="preserve" text-anchor="middle" x="362.5" y="-90.5" font-family="Helvetica,sans-Serif" font-size="10.00">USBD_CDC_SetTxBuffer</text>
</a>
</g>
</g>
<!-- Node2&#45;&gt;Node3 -->
<g id="edge3_Node000002_Node000003" class="edge">
<title>Node2&#45;&gt;Node3</title>
<g id="a_edge3_Node000002_Node000003"><a xlink:title=" ">
<path fill="none" stroke="#63b8ff" d="M253.57,-74.78C265.63,-76.93 278.75,-79.27 291.56,-81.55"/>
<polygon fill="#63b8ff" stroke="#63b8ff" points="290.76,-84.96 301.22,-83.27 291.98,-78.07 290.76,-84.96"/>
</a>
</g>
</g>
<!-- Node4 -->
<g id="Node000004" class="node">
<title>Node4</title>
<g id="a_Node000004"><a xlink:href="group___u_s_b_d___c_d_c___private___functions.html#gac6132b25e4ac00c4d918d3d73a3be5c7" target="_top" xlink:title="USBD_CDC_TransmitPacket Transmit packet on IN endpoint.">
<polygon fill="white" stroke="#666666" points="435.75,-48 289.25,-48 289.25,-28 435.75,-28 435.75,-48"/>
<text xml:space="preserve" text-anchor="middle" x="362.5" y="-34.5" font-family="Helvetica,sans-Serif" font-size="10.00">USBD_CDC_TransmitPacket</text>
</a>
</g>
</g>
<!-- Node2&#45;&gt;Node4 -->
<g id="edge5_Node000002_Node000004" class="edge">
<title>Node2&#45;&gt;Node4</title>
<g id="a_edge5_Node000002_Node000004"><a xlink:title=" ">
<path fill="none" stroke="#63b8ff" d="M253.57,-57.22C265.63,-55.07 278.75,-52.73 291.56,-50.45"/>
<polygon fill="#63b8ff" stroke="#63b8ff" points="291.98,-53.93 301.22,-48.73 290.76,-47.04 291.98,-53.93"/>
</a>
</g>
</g>
<!-- Node3&#45;&gt;Node3 -->
<g id="edge4_Node000003_Node000003" class="edge">
<title>Node3&#45;&gt;Node3</title>
<g id="a_edge4_Node000003_Node000003"><a xlink:title=" ">
<path fill="none" stroke="#63b8ff" d="M337.2,-104.34C326.38,-112.98 334.82,-122 362.5,-122 377.64,-122 387.02,-119.3 390.65,-115.44"/>
<polygon fill="#63b8ff" stroke="#63b8ff" points="394.05,-114.62 388.18,-105.8 387.27,-116.36 394.05,-114.62"/>
</a>
</g>
</g>
<!-- Node4&#45;&gt;Node4 -->
<g id="edge6_Node000004_Node000004" class="edge">
<title>Node4&#45;&gt;Node4</title>
<g id="a_edge6_Node000004_Node000004"><a xlink:title=" ">
<path fill="none" stroke="#63b8ff" d="M337.2,-48.34C326.38,-56.98 334.82,-66 362.5,-66 377.64,-66 387.02,-63.3 390.65,-59.44"/>
<polygon fill="#63b8ff" stroke="#63b8ff" points="394.05,-58.62 388.18,-49.8 387.27,-60.36 394.05,-58.62"/>
</a>
</g>
</g>
<!-- Node5 -->
<g id="Node000005" class="node">
<title>Node5</title>
<g id="a_Node000005"><a xlink:href="group___u_s_b_d___c_o_r_e___exported___functions_prototype.html#gab87eb9f3d4d9f8956d2c6b77230f265c" target="_top" xlink:title="Transmits data over an endpoint.">
<polygon fill="white" stroke="#666666" points="575.5,-48 471.75,-48 471.75,-28 575.5,-28 575.5,-48"/>
<text xml:space="preserve" text-anchor="middle" x="523.62" y="-34.5" font-family="Helvetica,sans-Serif" font-size="10.00">USBD_LL_Transmit</text>
</a>
</g>
</g>
<!-- Node4&#45;&gt;Node5 -->
<g id="edge7_Node000004_Node000005" class="edge">
<title>Node4&#45;&gt;Node5</title>
<g id="a_edge7_Node000004_Node000005"><a xlink:title=" ">
<path fill="none" stroke="#63b8ff" d="M436.08,-38C444.12,-38 452.25,-38 460.16,-38"/>
<polygon fill="#63b8ff" stroke="#63b8ff" points="460.01,-41.5 470.01,-38 460.01,-34.5 460.01,-41.5"/>
</a>
</g>
</g>
<!-- Node5&#45;&gt;Node5 -->
<g id="edge16_Node000005_Node000005" class="edge">
<title>Node5&#45;&gt;Node5</title>
<g id="a_edge16_Node000005_Node000005"><a xlink:title=" ">
<path fill="none" stroke="#63b8ff" d="M499.69,-48.34C489.46,-56.98 497.44,-66 523.62,-66 537.94,-66 546.82,-63.3 550.25,-59.44"/>
<polygon fill="#63b8ff" stroke="#63b8ff" points="553.67,-58.7 547.91,-49.81 546.87,-60.35 553.67,-58.7"/>
</a>
</g>
</g>
<!-- Node6 -->
<g id="Node000006" class="node">
<title>Node6</title>
<g id="a_Node000006"><a xlink:href="group___p_c_d___exported___functions___group3.html#ga116ada543442c8f7a1003c4d4c211618" target="_top" xlink:title="Send an amount of data.">
<polygon fill="white" stroke="#666666" points="736.62,-76 611.88,-76 611.88,-56 736.62,-56 736.62,-76"/>
<text xml:space="preserve" text-anchor="middle" x="674.25" y="-62.5" font-family="Helvetica,sans-Serif" font-size="10.00">HAL_PCD_EP_Transmit</text>
</a>
</g>
</g>
<!-- Node5&#45;&gt;Node6 -->
<g id="edge8_Node000005_Node000006" class="edge">
<title>Node5&#45;&gt;Node6</title>
<g id="a_edge8_Node000005_Node000006"><a xlink:title=" ">
<path fill="none" stroke="#63b8ff" d="M575.77,-47.64C585.7,-49.51 596.24,-51.49 606.58,-53.44"/>
<polygon fill="#63b8ff" stroke="#63b8ff" points="605.73,-56.84 616.2,-55.25 607.02,-49.96 605.73,-56.84"/>
</a>
</g>
</g>
<!-- Node9 -->
<g id="Node000009" class="node">
<title>Node9</title>
<g id="a_Node000009"><a xlink:href="usbd__conf_8c.html#a71e72e29fe464c7f3be4edf36806355e" target="_top" xlink:title="Returns the USB status depending on the HAL status:">
<polygon fill="white" stroke="#666666" points="737,-20 611.5,-20 611.5,0 737,0 737,-20"/>
<text xml:space="preserve" text-anchor="middle" x="674.25" y="-6.5" font-family="Helvetica,sans-Serif" font-size="10.00">USBD_Get_USB_Status</text>
</a>
</g>
</g>
<!-- Node5&#45;&gt;Node9 -->
<g id="edge14_Node000005_Node000009" class="edge">
<title>Node5&#45;&gt;Node9</title>
<g id="a_edge14_Node000005_Node000009"><a xlink:title=" ">
<path fill="none" stroke="#63b8ff" d="M575.77,-28.36C585.7,-26.49 596.24,-24.51 606.58,-22.56"/>
<polygon fill="#63b8ff" stroke="#63b8ff" points="607.02,-26.04 616.2,-20.75 605.73,-19.16 607.02,-26.04"/>
</a>
</g>
</g>
<!-- Node6&#45;&gt;Node6 -->
<g id="edge9_Node000006_Node000006" class="edge">
<title>Node6&#45;&gt;Node6</title>
<g id="a_edge9_Node000006_Node000006"><a xlink:title=" ">
<path fill="none" stroke="#63b8ff" d="M651.03,-76.34C641.11,-84.98 648.85,-94 674.25,-94 688.14,-94 696.75,-91.3 700.08,-87.44"/>
<polygon fill="#63b8ff" stroke="#63b8ff" points="703.51,-86.75 697.81,-77.81 696.69,-88.35 703.51,-86.75"/>
</a>
</g>
</g>
<!-- Node7 -->
<g id="Node000007" class="node">
<title>Node7</title>
<g id="a_Node000007"><a xlink:href="group___s_t_m32_f1xx___l_l___u_s_b___d_r_i_v_e_r.html#ga05602205cb06b07907a896032af202fa" target="_top" xlink:title="USB_EPStartXfer setup and starts a transfer over an EP.">
<polygon fill="white" stroke="#666666" points="867.75,-76 773,-76 773,-56 867.75,-56 867.75,-76"/>
<text xml:space="preserve" text-anchor="middle" x="820.38" y="-62.5" font-family="Helvetica,sans-Serif" font-size="10.00">USB_EPStartXfer</text>
</a>
</g>
</g>
<!-- Node6&#45;&gt;Node7 -->
<g id="edge10_Node000006_Node000007" class="edge">
<title>Node6&#45;&gt;Node7</title>
<g id="a_edge10_Node000006_Node000007"><a xlink:title=" ">
<path fill="none" stroke="#63b8ff" d="M736.79,-66C745.01,-66 753.41,-66 761.56,-66"/>
<polygon fill="#63b8ff" stroke="#63b8ff" points="761.35,-69.5 771.35,-66 761.35,-62.5 761.35,-69.5"/>
</a>
</g>
</g>
<!-- Node7&#45;&gt;Node7 -->
<g id="edge11_Node000007_Node000007" class="edge">
<title>Node7&#45;&gt;Node7</title>
<g id="a_edge11_Node000007_Node000007"><a xlink:title=" ">
<path fill="none" stroke="#63b8ff" d="M800.26,-76.34C791.66,-84.98 798.36,-94 820.38,-94 832.41,-94 839.87,-91.3 842.76,-87.44"/>
<polygon fill="#63b8ff" stroke="#63b8ff" points="846.22,-86.92 840.8,-77.82 839.36,-88.32 846.22,-86.92"/>
</a>
</g>
</g>
<!-- Node8 -->
<g id="Node000008" class="node">
<title>Node8</title>
<g id="a_Node000008"><a xlink:href="group___s_t_m32_f1xx___l_l___u_s_b___d_r_i_v_e_r.html#ga98590158a6be058b91f15e24a2d4dd56" target="_top" xlink:title="Copy a buffer from user memory area to packet memory area (PMA).">
<polygon fill="white" stroke="#666666" points="990.25,-76 903.75,-76 903.75,-56 990.25,-56 990.25,-76"/>
<text xml:space="preserve" text-anchor="middle" x="947" y="-62.5" font-family="Helvetica,sans-Serif" font-size="10.00">USB_WritePMA</text>
</a>
</g>
</g>
<!-- Node7&#45;&gt;Node8 -->
<g id="edge12_Node000007_Node000008" class="edge">
<title>Node7&#45;&gt;Node8</title>
<g id="a_edge12_Node000007_Node000008"><a xlink:title=" ">
<path fill="none" stroke="#63b8ff" d="M868.14,-66C875.93,-66 884.07,-66 892.03,-66"/>
<polygon fill="#63b8ff" stroke="#63b8ff" points="891.98,-69.5 901.98,-66 891.98,-62.5 891.98,-69.5"/>
</a>
</g>
</g>
<!-- Node8&#45;&gt;Node8 -->
<g id="edge13_Node000008_Node000008" class="edge">
<title>Node8&#45;&gt;Node8</title>
<g id="a_edge13_Node000008_Node000008"><a xlink:title=" ">
<path fill="none" stroke="#63b8ff" d="M926.88,-76.34C918.28,-84.98 924.99,-94 947,-94 959.04,-94 966.5,-91.3 969.38,-87.44"/>
<polygon fill="#63b8ff" stroke="#63b8ff" points="972.85,-86.92 967.42,-77.82 965.99,-88.32 972.85,-86.92"/>
</a>
</g>
</g>
<!-- Node9&#45;&gt;Node9 -->
<g id="edge15_Node000009_Node000009" class="edge">
<title>Node9&#45;&gt;Node9</title>
<g id="a_edge15_Node000009_Node000009"><a xlink:title=" ">
<path fill="none" stroke="#63b8ff" d="M651.03,-20.34C641.11,-28.98 648.85,-38 674.25,-38 688.14,-38 696.75,-35.3 700.08,-31.44"/>
<polygon fill="#63b8ff" stroke="#63b8ff" points="703.51,-30.75 697.81,-21.81 696.69,-32.35 703.51,-30.75"/>
</a>
</g>
</g>
</g>
</svg>

<g id="navigator" transform="translate(0 0)" fill="#404254">
  <rect fill="#f2f5e9" fill-opacity="0.5" stroke="#606060" stroke-width=".5" x="0" y="0" width="60" height="60"/>
  <use id="zoomplus" xlink:href="#zoomPlus" x="17" y="9" data-zoom="in"/>
  <use id="zoomminus" xlink:href="#zoomMin" x="42" y="9" data-zoom="out"/>
  <use id="reset" xlink:href="#resetDef" x="30" y="36" data-reset="true"/>
  <use id="arrowup" xlink:href="#arrowUp" x="0" y="0" data-pan-x="0" data-pan-y="-1"/>
  <use id="arrowright" xlink:href="#arrowRight" x="0" y="0" data-pan-x="1" data-pan-y="0"/>
  <use id="arrowdown" xlink:href="#arrowDown" x="0" y="0" data-pan-x="0" data-pan-y="1"/>
  <use id="arrowleft" xlink:href="#arrowLeft" x="0" y="0" data-pan-x="-1" data-pan-y="0"/>
</g>
<svg viewBox="0 0 15 15" width="100%" height="30px" preserveAspectRatio="xMaxYMin meet">
 <g id="arrow_out" transform="scale(0.3 0.3)">
  <a xlink:href="main_8c_a4b6c3ef3a2865e5bfd7baccc001ddc14_cgraph_org.svg" target="_base">
   <rect id="button" ry="5" rx="5" y="6" x="6" height="38" width="38"
        fill="#f2f5e9" fill-opacity="0.5" stroke="#606060" stroke-width="1.0"/>
   <path id="arrow"
     d="M 11.500037,31.436501 C 11.940474,20.09759 22.043105,11.32322 32.158766,21.979434 L 37.068811,17.246167 C 37.068811,17.246167 37.088388,32 37.088388,32 L 22.160133,31.978069 C 22.160133,31.978069 26.997745,27.140456 26.997745,27.140456 C 18.528582,18.264221 13.291696,25.230495 11.500037,31.436501 z"
     style="fill:#404040;"/>
  </a>
 </g>
</svg>

<style type='text/css'>
<![CDATA[
[data-mouse-over-selected='false'] { opacity: 0.7; }
[data-mouse-over-selected='true']  { opacity: 1.0; }
]]>
</style>
</svg>
