<?xml version="1.0" encoding="UTF-8" standalone="no"?>
<!DOCTYPE svg PUBLIC "-//W3C//DTD SVG 1.1//EN"
 "http://www.w3.org/Graphics/SVG/1.1/DTD/svg11.dtd">
<!-- Generated by graphviz version 16.1.0 (20260904.0139)
 -->
<!-- Title: HAL_UART_MspInit Pages: 1 -->
<svg width="513pt" height="214pt"
 viewBox="0.00 0.00 513.00 214.00" xmlns="http://www.w3.org/2000/svg" xmlns:xlink="http://www.w3.org/1999/xlink">
<g id="graph0" class="graph" transform="scale(1 1) rotate(0) translate(4 210)">
<title>HAL_UART_MspInit</title>
<!-- Node1 -->
<g id="Node000001" class="node">
<title>Node1</title>
<g id="a_Node000001"><a xlink:title="UART MSP Initialization This function configures the hardware resources used in this example.">
<polygon fill="#999999" stroke="#666666" points="504.98,-104 399.73,-104 399.73,-84 504.98,-84 504.98,-104"/>
<text xml:space="preserve" text-anchor="middle" x="452.36" y="-90.5" font-family="Helvetica,sans-Serif" font-size="10.00">HAL_UART_MspInit</text>
</a>
</g>
</g>
<!-- Node1&#45;&gt;Node1 -->
<g id="edge13_Node000001_Node000001" class="edge">
<title>Node1&#45;&gt;Node1</title>
<g id="a_edge13_Node000001_Node000001"><a xlink:title=" ">
<path fill="none" stroke="#63b8ff" d="M479.05,-115.44C475.61,-119.3 466.71,-122 452.36,-122 426.11,-122 418.11,-112.98 428.37,-104.34"/>
<polygon fill="#63b8ff" stroke="#63b8ff" points="482.47,-114.7 476.71,-105.81 475.67,-116.35 482.47,-114.7"/>
</a>
</g>
</g>
<!-- Node2 -->
<g id="Node000002" class="node">
<title>Node2</title>
<g id="a_Node000002"><a xlink:href="group___u_a_r_t___exported___functions___group1.html#ga927245827265eff1f3580a0121efd424" target="_top" xlink:title="Initializes the half&#45;duplex mode according to the specified parameters in the UART_InitTypeDef and cr...">
<polygon fill="white" stroke="#666666" points="355.48,-188 247.23,-188 247.23,-168 355.48,-168 355.48,-188"/>
<text xml:space="preserve" text-anchor="middle" x="301.36" y="-174.5" font-family="Helvetica,sans-Serif" font-size="10.00">HAL_HalfDuplex_Init</text>
</a>
</g>
</g>
<!-- Node1&#45;&gt;Node2 -->
<g id="edge1_Node000001_Node000002" class="edge">
<title>Node1&#45;&gt;Node2</title>
<g id="a_edge1_Node000001_Node000002"><a xlink:title=" ">
<path fill="none" stroke="#63b8ff" d="M431.54,-111.79C414.58,-126.22 388.96,-146.21 363.73,-159 357.27,-162.28 350.13,-165.12 343.07,-167.53"/>
<polygon fill="#63b8ff" stroke="#63b8ff" points="433.62,-114.61 438.88,-105.41 429.03,-109.33 433.62,-114.61"/>
</a>
</g>
</g>
<!-- Node3 -->
<g id="Node000003" class="node">
<title>Node3</title>
<g id="a_Node000003"><a xlink:href="group___u_a_r_t___exported___functions___group1.html#ga27e4497270bd06434e3965e4b06f5516" target="_top" xlink:title="Initializes the LIN mode according to the specified parameters in the UART_InitTypeDef and create the...">
<polygon fill="white" stroke="#666666" points="338.98,-132 263.73,-132 263.73,-112 338.98,-112 338.98,-132"/>
<text xml:space="preserve" text-anchor="middle" x="301.36" y="-118.5" font-family="Helvetica,sans-Serif" font-size="10.00">HAL_LIN_Init</text>
</a>
</g>
</g>
<!-- Node1&#45;&gt;Node3 -->
<g id="edge3_Node000001_Node000003" class="edge">
<title>Node1&#45;&gt;Node3</title>
<g id="a_edge3_Node000001_Node000003"><a xlink:title=" ">
<path fill="none" stroke="#63b8ff" d="M388.38,-105.83C371.62,-108.99 354.05,-112.29 339.2,-115.08"/>
<polygon fill="#63b8ff" stroke="#63b8ff" points="388.58,-109.36 397.76,-104.07 387.28,-102.48 388.58,-109.36"/>
</a>
</g>
</g>
<!-- Node4 -->
<g id="Node000004" class="node">
<title>Node4</title>
<g id="a_Node000004"><a xlink:href="group___u_a_r_t___exported___functions___group1.html#gaae1b49f0cb62235141807d8cbc61bc4d" target="_top" xlink:title="Initializes the Multi&#45;Processor mode according to the specified parameters in the UART_InitTypeDef an...">
<polygon fill="white" stroke="#666666" points="363.73,-76 238.98,-76 238.98,-56 363.73,-56 363.73,-76"/>
<text xml:space="preserve" text-anchor="middle" x="301.36" y="-62.5" font-family="Helvetica,sans-Serif" font-size="10.00">HAL_MultiProcessor_Init</text>
</a>
</g>
</g>
<!-- Node1&#45;&gt;Node4 -->
<g id="edge5_Node000001_Node000004" class="edge">
<title>Node1&#45;&gt;Node4</title>
<g id="a_edge5_Node000001_Node000004"><a xlink:title=" ">
<path fill="none" stroke="#63b8ff" d="M388.1,-82.11C378.09,-80.23 367.81,-78.3 357.99,-76.45"/>
<polygon fill="#63b8ff" stroke="#63b8ff" points="387.28,-85.52 397.76,-83.93 388.58,-78.64 387.28,-85.52"/>
</a>
</g>
</g>
<!-- Node5 -->
<g id="Node000005" class="node">
<title>Node5</title>
<g id="a_Node000005"><a xlink:href="group___u_a_r_t___exported___functions___group1.html#gabe47045024787099b0bfa82bbe7b0b6a" target="_top" xlink:title="Initializes the UART mode according to the specified parameters in the UART_InitTypeDef and create th...">
<polygon fill="white" stroke="#666666" points="344.61,-20 258.11,-20 258.11,0 344.61,0 344.61,-20"/>
<text xml:space="preserve" text-anchor="middle" x="301.36" y="-6.5" font-family="Helvetica,sans-Serif" font-size="10.00">HAL_UART_Init</text>
</a>
</g>
</g>
<!-- Node1&#45;&gt;Node5 -->
<g id="edge7_Node000001_Node000005" class="edge">
<title>Node1&#45;&gt;Node5</title>
<g id="a_edge7_Node000001_Node000005"><a xlink:title=" ">
<path fill="none" stroke="#63b8ff" d="M422.9,-77.95C392.81,-60.99 346.25,-34.74 320.69,-20.34"/>
<polygon fill="#63b8ff" stroke="#63b8ff" points="421.04,-80.93 431.47,-82.79 424.48,-74.83 421.04,-80.93"/>
</a>
</g>
</g>
<!-- Node2&#45;&gt;Node2 -->
<g id="edge2_Node000002_Node000002" class="edge">
<title>Node2&#45;&gt;Node2</title>
<g id="a_edge2_Node000002_Node000002"><a xlink:title=" ">
<path fill="none" stroke="#63b8ff" d="M328.05,-199.44C324.61,-203.3 315.71,-206 301.36,-206 275.11,-206 267.11,-196.98 277.37,-188.34"/>
<polygon fill="#63b8ff" stroke="#63b8ff" points="331.47,-198.7 325.71,-189.81 324.67,-200.35 331.47,-198.7"/>
</a>
</g>
</g>
<!-- Node3&#45;&gt;Node3 -->
<g id="edge4_Node000003_Node000003" class="edge">
<title>Node3&#45;&gt;Node3</title>
<g id="a_edge4_Node000003_Node000003"><a xlink:title=" ">
<path fill="none" stroke="#63b8ff" d="M328.05,-143.44C324.61,-147.3 315.71,-150 301.36,-150 275.11,-150 267.11,-140.98 277.37,-132.34"/>
<polygon fill="#63b8ff" stroke="#63b8ff" points="331.47,-142.7 325.71,-133.81 324.67,-144.35 331.47,-142.7"/>
</a>
</g>
</g>
<!-- Node4&#45;&gt;Node4 -->
<g id="edge6_Node000004_Node000004" class="edge">
<title>Node4&#45;&gt;Node4</title>
<g id="a_edge6_Node000004_Node000004"><a xlink:title=" ">
<path fill="none" stroke="#63b8ff" d="M328.05,-87.44C324.61,-91.3 315.71,-94 301.36,-94 275.11,-94 267.11,-84.98 277.37,-76.34"/>
<polygon fill="#63b8ff" stroke="#63b8ff" points="331.47,-86.7 325.71,-77.81 324.67,-88.35 331.47,-86.7"/>
</a>
</g>
</g>
<!-- Node5&#45;&gt;Node5 -->
<g id="edge8_Node000005_Node000005" class="edge">
<title>Node5&#45;&gt;Node5</title>
<g id="a_edge8_Node000005_Node000005"><a xlink:title=" ">
<path fill="none" stroke="#63b8ff" d="M328.05,-31.44C324.61,-35.3 315.71,-38 301.36,-38 275.11,-38 267.11,-28.98 277.37,-20.34"/>
<polygon fill="#63b8ff" stroke="#63b8ff" points="331.47,-30.7 325.71,-21.81 324.67,-32.35 331.47,-30.7"/>
</a>
</g>
</g>
<!-- Node6 -->
<g id="Node000006" class="node">
<title>Node6</title>
<g id="a_Node000006"><a xlink:href="main_8c.html#a62f4b77e20bccafe98a183771749c20c" target="_top" xlink:title="USART1 Initialization Function.">
<polygon fill="white" stroke="#666666" points="202.98,-20 76.73,-20 76.73,0 202.98,0 202.98,-20"/>
<text xml:space="preserve" text-anchor="middle" x="139.86" y="-6.5" font-family="Helvetica,sans-Serif" font-size="10.00">MX_USART1_UART_Init</text>
</a>
</g>
</g>
<!-- Node5&#45;&gt;Node6 -->
<g id="edge9_Node000005_Node000006" class="edge">
<title>Node5&#45;&gt;Node6</title>
<g id="a_edge9_Node000005_Node000006"><a xlink:title=" ">
<path fill="none" stroke="#63b8ff" d="M246.3,-10C232.45,-10 217.44,-10 203.22,-10"/>
<polygon fill="#63b8ff" stroke="#63b8ff" points="246.1,-13.5 256.1,-10 246.1,-6.5 246.1,-13.5"/>
</a>
</g>
</g>
<!-- Node6&#45;&gt;Node6 -->
<g id="edge12_Node000006_Node000006" class="edge">
<title>Node6&#45;&gt;Node6</title>
<g id="a_edge12_Node000006_Node000006"><a xlink:title=" ">
<path fill="none" stroke="#63b8ff" d="M160.65,-31.44C157.97,-35.3 151.04,-38 139.86,-38 119.41,-38 113.18,-28.98 121.17,-20.34"/>
<polygon fill="#63b8ff" stroke="#63b8ff" points="164.13,-31 158.83,-21.83 157.25,-32.3 164.13,-31"/>
</a>
</g>
</g>
<!-- Node7 -->
<g id="Node000007" class="node">
<title>Node7</title>
<g id="a_Node000007"><a xlink:href="main_8c.html#a840291bc02cba5474a4cb46a9b9566fe" target="_top" xlink:title="The application entry point.">
<polygon fill="white" stroke="#666666" points="40.73,-20 3.73,-20 3.73,0 40.73,0 40.73,-20"/>
<text xml:space="preserve" text-anchor="middle" x="22.23" y="-6.5" font-family="Helvetica,sans-Serif" font-size="10.00">main</text>
</a>
</g>
</g>
<!-- Node6&#45;&gt;Node7 -->
<g id="edge10_Node000006_Node000007" class="edge">
<title>Node6&#45;&gt;Node7</title>
<g id="a_edge10_Node000006_Node000007"><a xlink:title=" ">
<path fill="none" stroke="#63b8ff" d="M64.9,-10C56.07,-10 47.78,-10 40.96,-10"/>
<polygon fill="#63b8ff" stroke="#63b8ff" points="64.79,-13.5 74.79,-10 64.79,-6.5 64.79,-13.5"/>
</a>
</g>
</g>
<!-- Node7&#45;&gt;Node7 -->
<g id="edge11_Node000007_Node000007" class="edge">
<title>Node7&#45;&gt;Node7</title>
<g id="a_edge11_Node000007_Node000007"><a xlink:title=" ">
<path fill="none" stroke="#63b8ff" d="M43.02,-31.44C40.35,-35.3 33.42,-38 22.23,-38 1.79,-38 -4.44,-28.98 3.54,-20.34"/>
<polygon fill="#63b8ff" stroke="#63b8ff" points="46.5,-31 41.2,-21.83 39.62,-32.3 46.5,-31"/>
</a>
</g>
</g>
</g>
</svg>
